G75*
G70*
%OFA0B0*%
%FSLAX24Y24*%
%IPPOS*%
%LPD*%
%AMOC8*
5,1,8,0,0,1.08239X$1,22.5*
%
%ADD10C,0.0000*%
%ADD11OC8,0.0515*%
%ADD12R,0.0315X0.0354*%
%ADD13R,0.0591X0.0394*%
%ADD14R,0.0512X0.0591*%
%ADD15C,0.0740*%
%ADD16R,0.0250X0.0500*%
%ADD17C,0.0080*%
%ADD18R,0.0760X0.2100*%
%ADD19R,0.0591X0.0512*%
%ADD20R,0.0740X0.0740*%
%ADD21C,0.0070*%
%ADD22OC8,0.0240*%
D10*
X000605Y000141D02*
X000605Y008718D01*
X014134Y008718D01*
X014134Y000141D01*
X000605Y000141D01*
D11*
X001355Y000581D03*
X002355Y000581D03*
X003355Y000581D03*
X004355Y000581D03*
X005355Y000581D03*
X006355Y000581D03*
X007355Y000581D03*
X008355Y000581D03*
X009355Y000581D03*
X010355Y000581D03*
X011355Y000581D03*
X012355Y000581D03*
X013355Y000581D03*
X013355Y001391D03*
X012355Y001391D03*
X011355Y001391D03*
X010355Y001391D03*
X009355Y001391D03*
X008355Y001391D03*
X007355Y001391D03*
X006355Y001391D03*
X005355Y001391D03*
X004355Y001391D03*
X003355Y001391D03*
X002355Y001391D03*
X001355Y001391D03*
D12*
X003355Y006458D03*
X003729Y007285D03*
X002981Y007285D03*
D13*
X002735Y008141D03*
X003475Y008141D03*
X004485Y008141D03*
X005225Y008141D03*
X008985Y003641D03*
X009725Y003641D03*
X010735Y003641D03*
X011475Y003641D03*
X011475Y002891D03*
X010735Y002891D03*
D14*
X006689Y008141D03*
X006020Y008141D03*
D15*
X008355Y005891D03*
X009355Y005891D03*
X010355Y005891D03*
X011355Y005891D03*
X012355Y005891D03*
X012355Y004641D03*
X013355Y004641D03*
D16*
X007680Y008141D03*
X007280Y008141D03*
D17*
X007330Y008141D02*
X007630Y008141D01*
D18*
X001605Y007041D03*
X001605Y003241D03*
D19*
X003105Y003056D03*
X003105Y003726D03*
X003105Y004556D03*
X003105Y005226D03*
X008317Y005019D03*
X008317Y004350D03*
D20*
X013355Y005891D03*
D21*
X011105Y008141D01*
X007680Y008141D01*
X007280Y008141D02*
X006689Y008141D01*
X006020Y008141D02*
X006005Y008141D01*
X005285Y008141D01*
X005225Y008141D01*
X005245Y008141D01*
X005525Y007861D01*
X005525Y007741D01*
X005505Y007721D01*
X003625Y005841D01*
X003345Y005841D01*
X003325Y005861D01*
X003245Y005621D02*
X003005Y005861D01*
X003005Y007261D01*
X002981Y007285D01*
X002965Y007301D01*
X002925Y007301D01*
X002025Y008201D01*
X001185Y008201D01*
X001105Y008121D01*
X001105Y001641D01*
X001345Y001401D01*
X001355Y001391D01*
X000965Y001261D02*
X001265Y000961D01*
X001965Y000961D01*
X002345Y000581D01*
X002355Y000581D01*
X002905Y000681D02*
X003245Y001021D01*
X004505Y001021D01*
X004985Y001501D01*
X004985Y001541D01*
X007205Y003761D01*
X009065Y003761D01*
X008985Y003641D01*
X008985Y003641D01*
X009385Y004041D01*
X009525Y004361D02*
X009665Y004501D01*
X009825Y004501D01*
X010005Y004321D01*
X010025Y004341D01*
X010185Y004501D01*
X010365Y004501D01*
X010685Y004181D01*
X011045Y004181D01*
X011225Y004041D02*
X011605Y004041D01*
X011225Y004041D02*
X010825Y003641D01*
X010745Y003641D01*
X010735Y003641D01*
X010405Y003321D02*
X010285Y003441D01*
X010285Y004261D01*
X010045Y004281D02*
X010045Y003981D01*
X010145Y003881D01*
X010145Y003381D01*
X010705Y002821D01*
X010735Y002891D01*
X010725Y002881D01*
X010725Y002001D01*
X010745Y002001D01*
X011345Y001401D01*
X011355Y001391D01*
X010725Y001761D02*
X010365Y001401D01*
X010355Y001391D01*
X009985Y001281D02*
X009985Y000941D01*
X010345Y000581D01*
X010355Y000581D01*
X009985Y001281D02*
X008105Y003161D01*
X008445Y003521D02*
X007561Y003521D01*
X006765Y003801D02*
X004365Y001401D01*
X004355Y001391D01*
X004825Y001021D02*
X005505Y001021D01*
X005725Y001241D01*
X005725Y001281D01*
X006345Y001901D01*
X008565Y001901D01*
X009065Y001401D01*
X009345Y001401D01*
X009355Y001391D01*
X008765Y001501D02*
X008765Y001141D01*
X008885Y000941D02*
X008845Y000901D01*
X008565Y000901D01*
X008445Y001021D01*
X007725Y001021D01*
X007365Y001381D01*
X007355Y001391D01*
X006725Y001761D02*
X006365Y001401D01*
X006355Y001391D01*
X006725Y001761D02*
X008505Y001761D01*
X008765Y001501D01*
X008885Y000941D02*
X009005Y000941D01*
X010725Y001761D02*
X010725Y002001D01*
X011485Y002901D02*
X012015Y002631D01*
X011485Y002901D02*
X011475Y002891D01*
X011065Y003321D02*
X010405Y003321D01*
X011065Y003321D02*
X011385Y003641D01*
X011465Y003641D01*
X011475Y003641D01*
X011545Y004421D02*
X012345Y003621D01*
X012345Y001401D01*
X012355Y001391D01*
X012985Y000941D02*
X013345Y000581D01*
X013355Y000581D01*
X012985Y000941D02*
X012985Y003181D01*
X011605Y004561D01*
X011145Y004561D01*
X010925Y004781D01*
X009785Y004781D01*
X008865Y005701D01*
X008865Y006061D01*
X008545Y006381D01*
X008165Y006381D01*
X007405Y005621D01*
X007405Y004201D01*
X007085Y004201D02*
X007085Y005621D01*
X007865Y006401D01*
X007325Y006801D02*
X007305Y006781D01*
X007005Y007081D01*
X006325Y007081D01*
X006085Y006841D01*
X005845Y006841D01*
X005765Y006601D02*
X005605Y006761D01*
X005605Y006921D01*
X005905Y007221D01*
X007065Y007221D01*
X007245Y007041D01*
X007365Y007041D01*
X007005Y006881D02*
X007245Y006641D01*
X008605Y006641D01*
X008845Y006651D01*
X008665Y006801D02*
X008745Y006881D01*
X009945Y006881D01*
X010045Y006781D01*
X009705Y006501D02*
X009695Y006511D01*
X009705Y006501D02*
X009705Y006221D01*
X009845Y006081D01*
X009845Y005721D01*
X009865Y005701D01*
X010645Y004921D01*
X011105Y004921D01*
X011125Y004901D01*
X011725Y004641D02*
X012345Y004641D01*
X012355Y004641D01*
X011725Y004641D02*
X010485Y005881D01*
X010365Y005881D01*
X010355Y005891D01*
X009365Y005001D02*
X009725Y004641D01*
X010405Y004641D01*
X010425Y004641D01*
X010645Y004421D01*
X011545Y004421D01*
X010045Y004281D02*
X010005Y004321D01*
X009745Y004261D02*
X009745Y003641D01*
X009725Y003641D01*
X009525Y004361D02*
X008345Y004361D01*
X008317Y004350D01*
X008305Y004361D01*
X008265Y004361D01*
X007825Y004801D01*
X008317Y005019D02*
X008345Y005001D01*
X009365Y005001D01*
X008325Y005021D02*
X008317Y005019D01*
X008325Y005021D02*
X008325Y005861D01*
X008345Y005881D01*
X008355Y005891D01*
X008665Y006801D02*
X007325Y006801D01*
X007005Y006881D02*
X006705Y006881D01*
X006665Y006841D01*
X006405Y006841D01*
X006205Y006621D02*
X006045Y006621D01*
X006025Y006601D01*
X005765Y006601D01*
X006125Y006381D02*
X005185Y005441D01*
X005185Y004221D01*
X002365Y001401D01*
X002355Y001391D01*
X002905Y001461D02*
X002905Y001001D01*
X003355Y001391D02*
X003365Y001401D01*
X006365Y004401D01*
X006365Y006461D01*
X006205Y006621D01*
X006765Y006621D02*
X006765Y003801D01*
X006065Y004621D02*
X002905Y001461D01*
X000965Y001261D02*
X000965Y008181D01*
X001245Y008461D01*
X003925Y008461D01*
X003485Y008141D02*
X003475Y008141D01*
X003485Y008141D02*
X004465Y008141D01*
X004485Y008141D01*
X004505Y008161D01*
X004585Y008161D01*
X004985Y008561D01*
X010365Y008561D01*
X011585Y008561D01*
X013855Y006291D01*
X013855Y005141D01*
X013355Y004641D01*
X013345Y004641D01*
X009265Y003001D02*
X008965Y003001D01*
X008445Y003521D01*
X006065Y004621D02*
X006065Y006001D01*
X005045Y006561D02*
X005045Y004441D01*
X004065Y003461D01*
X003985Y003461D01*
X003605Y003721D02*
X003125Y003721D01*
X003105Y003726D01*
X003105Y003741D01*
X003105Y004541D01*
X003105Y004556D01*
X003605Y004761D02*
X003605Y004241D01*
X003985Y003781D02*
X003265Y003061D01*
X003105Y003061D01*
X003105Y003056D01*
X003085Y003081D01*
X001765Y003081D01*
X001605Y003241D01*
X003145Y005221D02*
X003605Y004761D01*
X003145Y005221D02*
X003105Y005221D01*
X003105Y005226D01*
X003085Y005241D01*
X003085Y005561D01*
X001605Y007041D01*
X002925Y007741D02*
X002925Y007961D01*
X002745Y008141D01*
X002735Y008141D01*
X003725Y007281D02*
X003729Y007285D01*
X003725Y007281D02*
X003725Y006261D01*
X003545Y006081D01*
X003355Y006458D02*
X003345Y006461D01*
X003345Y006961D01*
X004485Y006381D02*
X004485Y004881D01*
X004525Y004521D02*
X003425Y005621D01*
X003245Y005621D01*
X004525Y004521D02*
X004685Y004521D01*
X005045Y006561D02*
X006145Y007661D01*
X007065Y007661D01*
D22*
X007065Y007661D03*
X007365Y007041D03*
X006765Y006621D03*
X006405Y006841D03*
X005845Y006841D03*
X006125Y006381D03*
X006065Y006001D03*
X004485Y006381D03*
X003545Y006081D03*
X003325Y005861D03*
X004485Y004881D03*
X004685Y004521D03*
X003605Y004241D03*
X003985Y003781D03*
X003605Y003721D03*
X003985Y003461D03*
X007085Y004201D03*
X007405Y004201D03*
X007825Y004801D03*
X009385Y004041D03*
X009745Y004261D03*
X010285Y004261D03*
X011045Y004181D03*
X011605Y004041D03*
X011125Y004901D03*
X009695Y006511D03*
X010045Y006781D03*
X008845Y006651D03*
X007865Y006401D03*
X005525Y007741D03*
X003925Y008461D03*
X002925Y007741D03*
X003345Y006961D03*
X007561Y003521D03*
X008105Y003161D03*
X009265Y003001D03*
X012015Y002631D03*
X009005Y000941D03*
X008765Y001141D03*
X004825Y001021D03*
X002905Y001001D03*
X002905Y000681D03*
M02*
