G75*
G70*
%OFA0B0*%
%FSLAX24Y24*%
%IPPOS*%
%LPD*%
%AMOC8*
5,1,8,0,0,1.08239X$1,22.5*
%
%ADD10C,0.0000*%
%ADD11C,0.0060*%
%ADD12C,0.0050*%
%ADD13C,0.0070*%
%ADD14C,0.0040*%
%ADD15C,0.0100*%
%ADD16C,0.0080*%
%ADD17C,0.0001*%
%ADD18C,0.0020*%
D10*
X000605Y000141D02*
X000605Y008718D01*
X014134Y008718D01*
X014134Y000141D01*
X000605Y000141D01*
D11*
X000755Y002891D02*
X001155Y002891D01*
X000755Y002891D02*
X000738Y002893D01*
X000721Y002897D01*
X000705Y002904D01*
X000691Y002914D01*
X000678Y002927D01*
X000668Y002941D01*
X000661Y002957D01*
X000657Y002974D01*
X000655Y002991D01*
X000655Y007291D01*
X000657Y007308D01*
X000661Y007325D01*
X000668Y007341D01*
X000678Y007355D01*
X000691Y007368D01*
X000705Y007378D01*
X000721Y007385D01*
X000738Y007389D01*
X000755Y007391D01*
X001155Y007391D01*
X002055Y007391D02*
X002455Y007391D01*
X002472Y007389D01*
X002489Y007385D01*
X002505Y007378D01*
X002519Y007368D01*
X002532Y007355D01*
X002542Y007341D01*
X002549Y007325D01*
X002553Y007308D01*
X002555Y007291D01*
X002555Y002991D01*
X002553Y002974D01*
X002549Y002957D01*
X002542Y002941D01*
X002532Y002927D01*
X002519Y002914D01*
X002505Y002904D01*
X002489Y002897D01*
X002472Y002893D01*
X002455Y002891D01*
X002055Y002891D01*
X001855Y004891D02*
X001605Y004891D01*
X001355Y004891D01*
X001355Y005041D02*
X001355Y005241D01*
X001855Y005241D01*
X001855Y005041D01*
X001355Y005041D01*
X001355Y005391D02*
X001605Y005391D01*
X001855Y005391D01*
X012519Y003857D02*
X012519Y003710D01*
X012593Y003637D01*
X012813Y003637D01*
X012666Y003637D02*
X012519Y003490D01*
X012813Y003490D02*
X012813Y003930D01*
X012593Y003930D01*
X012519Y003857D01*
X012980Y003930D02*
X012980Y003490D01*
X013127Y003637D01*
X013273Y003490D01*
X013273Y003930D01*
X013440Y003857D02*
X013440Y003710D01*
X013514Y003637D01*
X013734Y003637D01*
X013734Y003490D02*
X013734Y003930D01*
X013514Y003930D01*
X013440Y003857D01*
D12*
X011855Y003891D02*
X011855Y003391D01*
X010355Y003391D01*
X010355Y003891D01*
X011855Y003891D01*
X011855Y003141D02*
X010355Y003141D01*
X010355Y002641D01*
X011855Y002641D01*
X011855Y003141D01*
X012418Y002066D02*
X012360Y002008D01*
X012360Y001774D01*
X012418Y001716D01*
X012593Y001716D01*
X012593Y002066D01*
X012418Y002066D01*
X012728Y002066D02*
X012728Y001716D01*
X012961Y002066D01*
X012961Y001716D01*
X013096Y001774D02*
X013096Y001891D01*
X013213Y001891D01*
X013330Y001774D02*
X013271Y001716D01*
X013155Y001716D01*
X013096Y001774D01*
X013330Y001774D02*
X013330Y002008D01*
X013271Y002066D01*
X013155Y002066D01*
X013096Y002008D01*
X011280Y002066D02*
X011280Y001833D01*
X011163Y001716D01*
X011046Y001833D01*
X011046Y002066D01*
X010911Y002008D02*
X010911Y001774D01*
X010853Y001716D01*
X010736Y001716D01*
X010678Y001774D01*
X010543Y001774D02*
X010485Y001716D01*
X010368Y001716D01*
X010310Y001774D01*
X010543Y001774D02*
X010543Y002008D01*
X010485Y002066D01*
X010368Y002066D01*
X010310Y002008D01*
X010678Y002008D02*
X010736Y002066D01*
X010853Y002066D01*
X010911Y002008D01*
X009580Y002066D02*
X009580Y001716D01*
X009580Y001833D02*
X009405Y001833D01*
X009346Y001891D01*
X009346Y002008D01*
X009405Y002066D01*
X009580Y002066D01*
X009463Y001833D02*
X009346Y001716D01*
X009211Y001716D02*
X009036Y001716D01*
X008978Y001774D01*
X009036Y001833D01*
X009153Y001833D01*
X009211Y001891D01*
X009153Y001950D01*
X008978Y001950D01*
X008580Y001950D02*
X008580Y001716D01*
X008580Y001891D02*
X008346Y001891D01*
X008346Y001950D02*
X008346Y001716D01*
X008211Y001716D02*
X008211Y001950D01*
X008095Y001950D02*
X008211Y001833D01*
X008095Y001950D02*
X008036Y001950D01*
X008346Y001950D02*
X008463Y002066D01*
X008580Y001950D01*
X007630Y001950D02*
X007630Y001716D01*
X007630Y001891D02*
X007396Y001891D01*
X007396Y001950D02*
X007396Y001716D01*
X007261Y001774D02*
X007203Y001716D01*
X007086Y001716D01*
X007028Y001774D01*
X007028Y001891D01*
X007086Y001950D01*
X007145Y001950D01*
X007261Y001891D01*
X007261Y002066D01*
X007028Y002066D01*
X007396Y001950D02*
X007513Y002066D01*
X007630Y001950D01*
X006680Y001950D02*
X006680Y001716D01*
X006446Y001716D02*
X006446Y001950D01*
X006563Y002066D01*
X006680Y001950D01*
X006680Y001891D02*
X006446Y001891D01*
X006311Y001891D02*
X006078Y001891D01*
X006136Y001716D02*
X006136Y002066D01*
X006311Y001891D01*
X005680Y001891D02*
X005446Y001891D01*
X005446Y001950D02*
X005446Y001716D01*
X005311Y001774D02*
X005253Y001716D01*
X005136Y001716D01*
X005078Y001774D01*
X005078Y001833D01*
X005136Y001891D01*
X005195Y001891D01*
X005136Y001891D02*
X005078Y001950D01*
X005078Y002008D01*
X005136Y002066D01*
X005253Y002066D01*
X005311Y002008D01*
X005446Y001950D02*
X005563Y002066D01*
X005680Y001950D01*
X005680Y001716D01*
X004680Y001716D02*
X004680Y001950D01*
X004563Y002066D01*
X004446Y001950D01*
X004446Y001716D01*
X004311Y001716D02*
X004078Y001950D01*
X004078Y002008D01*
X004136Y002066D01*
X004253Y002066D01*
X004311Y002008D01*
X004446Y001891D02*
X004680Y001891D01*
X004311Y001716D02*
X004078Y001716D01*
X003680Y001716D02*
X003680Y001950D01*
X003563Y002066D01*
X003446Y001950D01*
X003446Y001716D01*
X003311Y001716D02*
X003078Y001716D01*
X003195Y001716D02*
X003195Y002066D01*
X003311Y001950D01*
X003446Y001891D02*
X003680Y001891D01*
X002630Y001891D02*
X002396Y001891D01*
X002396Y001950D02*
X002396Y001716D01*
X002261Y001774D02*
X002028Y002008D01*
X002028Y001774D01*
X002086Y001716D01*
X002203Y001716D01*
X002261Y001774D01*
X002261Y002008D01*
X002203Y002066D01*
X002086Y002066D01*
X002028Y002008D01*
X001780Y002066D02*
X001605Y002066D01*
X001546Y002008D01*
X001546Y001774D01*
X001605Y001716D01*
X001780Y001716D01*
X001780Y002066D01*
X001411Y001950D02*
X001295Y002066D01*
X001295Y001716D01*
X001411Y001716D02*
X001178Y001716D01*
X001043Y001774D02*
X000985Y001716D01*
X000868Y001716D01*
X000810Y001774D01*
X000810Y001833D01*
X000868Y001891D01*
X000926Y001891D01*
X000868Y001891D02*
X000810Y001950D01*
X000810Y002008D01*
X000868Y002066D01*
X000985Y002066D01*
X001043Y002008D01*
X002396Y001950D02*
X002513Y002066D01*
X002630Y001950D01*
X002630Y001716D01*
X008605Y003391D02*
X008605Y003891D01*
X010105Y003891D01*
X010105Y003391D01*
X008605Y003391D01*
X005605Y007891D02*
X004105Y007891D01*
X004105Y008391D01*
X005605Y008391D01*
X005605Y007891D01*
X003855Y007891D02*
X003855Y008391D01*
X002355Y008391D01*
X002355Y007891D01*
X003855Y007891D01*
D13*
X007855Y006391D02*
X007855Y005391D01*
X013855Y005391D01*
X013855Y006391D01*
X007855Y006391D01*
X010005Y002191D02*
X010005Y001041D01*
X011705Y001041D01*
X011705Y002191D01*
X010055Y002191D01*
X012005Y002191D02*
X012005Y001041D01*
X013705Y001041D01*
X013705Y002191D01*
X012055Y002191D01*
X012005Y002191D01*
D14*
X012155Y003313D02*
X012155Y003553D01*
X011974Y003373D01*
X012335Y003373D01*
X012335Y003681D02*
X012215Y003801D01*
X012215Y003741D02*
X012215Y003921D01*
X012335Y003921D02*
X011974Y003921D01*
X011974Y003741D01*
X012034Y003681D01*
X012155Y003681D01*
X012215Y003741D01*
X010221Y003021D02*
X010221Y002661D01*
X010221Y002781D02*
X010041Y002781D01*
X009981Y002841D01*
X009981Y002961D01*
X010041Y003021D01*
X010221Y003021D01*
X009853Y002961D02*
X009793Y003021D01*
X009673Y003021D01*
X009613Y002961D01*
X009613Y002901D01*
X009853Y002661D01*
X009613Y002661D01*
X009981Y002661D02*
X010101Y002781D01*
X008521Y003461D02*
X008521Y003821D01*
X008341Y003821D01*
X008281Y003761D01*
X008281Y003641D01*
X008341Y003581D01*
X008521Y003581D01*
X008401Y003581D02*
X008281Y003461D01*
X008153Y003521D02*
X008093Y003461D01*
X007973Y003461D01*
X007913Y003521D01*
X007913Y003641D01*
X007973Y003701D01*
X008033Y003701D01*
X008153Y003641D01*
X008153Y003821D01*
X007913Y003821D01*
X008737Y004431D02*
X008814Y004355D01*
X009121Y004355D01*
X009198Y004431D01*
X009198Y004585D01*
X009121Y004662D01*
X009044Y004815D02*
X009198Y004969D01*
X008737Y004969D01*
X008737Y005122D02*
X008737Y004815D01*
X008814Y004662D02*
X008737Y004585D01*
X008737Y004431D01*
X008585Y006861D02*
X008225Y006861D01*
X008225Y007041D01*
X008285Y007101D01*
X008345Y007101D01*
X008405Y007041D01*
X008405Y006861D01*
X008585Y006861D02*
X008585Y007041D01*
X008525Y007101D01*
X008465Y007101D01*
X008405Y007041D01*
X008345Y007229D02*
X008585Y007470D01*
X008405Y007289D02*
X008225Y007470D01*
X008225Y007229D02*
X008585Y007229D01*
X008405Y007966D02*
X008405Y008206D01*
X010225Y007470D02*
X010225Y007229D01*
X010585Y007229D01*
X010585Y007470D01*
X010405Y007349D02*
X010405Y007229D01*
X010405Y007101D02*
X010345Y007041D01*
X010345Y006861D01*
X010345Y006981D02*
X010225Y007101D01*
X010405Y007101D02*
X010525Y007101D01*
X010585Y007041D01*
X010585Y006861D01*
X010225Y006861D01*
X011175Y006921D02*
X011235Y006861D01*
X011475Y006861D01*
X011535Y006921D01*
X011535Y007041D01*
X011475Y007101D01*
X011235Y007101D01*
X011175Y007041D01*
X011175Y006921D01*
X011175Y007229D02*
X011535Y007229D01*
X011535Y007410D01*
X011475Y007470D01*
X011355Y007470D01*
X011295Y007410D01*
X011295Y007229D01*
X011295Y007349D02*
X011175Y007470D01*
X011415Y007966D02*
X011415Y008086D01*
X011475Y008026D02*
X011235Y008026D01*
X011175Y008086D01*
X011175Y008212D02*
X011415Y008452D01*
X011415Y008212D02*
X011175Y008452D01*
X010525Y008086D02*
X010285Y008086D01*
X010405Y007966D02*
X010405Y008206D01*
X012275Y008273D02*
X012515Y008513D01*
X012515Y008273D02*
X012275Y008513D01*
X012515Y008146D02*
X012515Y008086D01*
X012395Y007966D01*
X012275Y007966D02*
X012515Y007966D01*
X012275Y007470D02*
X012275Y007229D01*
X012635Y007229D01*
X012635Y007101D02*
X012575Y007101D01*
X012455Y006981D01*
X012275Y006981D01*
X012455Y006981D02*
X012575Y006861D01*
X012635Y006861D01*
X013225Y006921D02*
X013225Y007041D01*
X013285Y007101D01*
X013405Y007101D01*
X013405Y006981D01*
X013525Y006861D02*
X013285Y006861D01*
X013225Y006921D01*
X013525Y006861D02*
X013585Y006921D01*
X013585Y007041D01*
X013525Y007101D01*
X013585Y007229D02*
X013585Y007410D01*
X013525Y007470D01*
X013405Y007470D01*
X013345Y007410D01*
X013345Y007229D01*
X013225Y007229D02*
X013585Y007229D01*
X013345Y007349D02*
X013225Y007470D01*
X013285Y007966D02*
X013405Y007966D01*
X013465Y008026D01*
X013465Y008206D01*
X013585Y008206D02*
X013225Y008206D01*
X013225Y008026D01*
X013285Y007966D01*
X013465Y008334D02*
X013465Y008454D01*
X013525Y008394D02*
X013285Y008394D01*
X013225Y008454D01*
X006671Y007711D02*
X006671Y007471D01*
X006611Y007411D01*
X006491Y007411D01*
X006431Y007471D01*
X006303Y007411D02*
X006063Y007651D01*
X006063Y007711D01*
X006123Y007771D01*
X006243Y007771D01*
X006303Y007711D01*
X006431Y007711D02*
X006491Y007771D01*
X006611Y007771D01*
X006671Y007711D01*
X006303Y007411D02*
X006063Y007411D01*
X005121Y007461D02*
X005121Y007821D01*
X004941Y007821D01*
X004881Y007761D01*
X004881Y007641D01*
X004941Y007581D01*
X005121Y007581D01*
X005001Y007581D02*
X004881Y007461D01*
X004753Y007521D02*
X004693Y007461D01*
X004573Y007461D01*
X004513Y007521D01*
X004513Y007581D01*
X004573Y007641D01*
X004633Y007641D01*
X004573Y007641D02*
X004513Y007701D01*
X004513Y007761D01*
X004573Y007821D01*
X004693Y007821D01*
X004753Y007761D01*
X004325Y007296D02*
X004084Y007296D01*
X004024Y007236D01*
X004024Y007116D01*
X004084Y007056D01*
X004325Y007056D01*
X004385Y007116D01*
X004385Y007236D01*
X004325Y007296D01*
X004265Y007176D02*
X004385Y007056D01*
X004385Y006928D02*
X004385Y006688D01*
X004385Y006808D02*
X004024Y006808D01*
X004145Y006928D01*
X002235Y008161D02*
X002235Y008521D01*
X002055Y008521D01*
X001995Y008461D01*
X001995Y008341D01*
X002055Y008281D01*
X002235Y008281D01*
X002115Y008281D02*
X001995Y008161D01*
X001866Y008161D02*
X001626Y008161D01*
X001746Y008161D02*
X001746Y008521D01*
X001866Y008401D01*
X003584Y005127D02*
X003825Y005127D01*
X003885Y005067D01*
X003885Y004947D01*
X003825Y004887D01*
X003825Y004759D02*
X003885Y004699D01*
X003885Y004579D01*
X003825Y004519D01*
X003765Y004519D01*
X003705Y004579D01*
X003705Y004639D01*
X003705Y004579D02*
X003645Y004519D01*
X003584Y004519D01*
X003524Y004579D01*
X003524Y004699D01*
X003584Y004759D01*
X003584Y004887D02*
X003524Y004947D01*
X003524Y005067D01*
X003584Y005127D01*
X003634Y003377D02*
X003874Y003377D01*
X003934Y003317D01*
X003934Y003196D01*
X003874Y003136D01*
X003754Y003008D02*
X003754Y002768D01*
X003934Y002828D02*
X003574Y002828D01*
X003754Y003008D01*
X003634Y003136D02*
X003574Y003196D01*
X003574Y003317D01*
X003634Y003377D01*
X002735Y002771D02*
X002495Y002411D01*
X002366Y002411D02*
X002126Y002411D01*
X002246Y002411D02*
X002246Y002771D01*
X002366Y002651D01*
X002495Y002771D02*
X002735Y002411D01*
D15*
X002655Y001391D02*
X003055Y001391D01*
X003655Y001391D02*
X004055Y001391D01*
X004655Y001391D02*
X005055Y001391D01*
X005655Y001391D02*
X006055Y001391D01*
X006655Y001391D02*
X007055Y001391D01*
X007655Y001391D02*
X008055Y001391D01*
X008655Y001391D02*
X009055Y001391D01*
X009655Y001391D02*
X010055Y001391D01*
X010655Y001391D02*
X011055Y001391D01*
X011655Y001391D02*
X012055Y001391D01*
X012655Y001391D02*
X013055Y001391D01*
X002055Y001391D02*
X001655Y001391D01*
D16*
X002804Y006616D02*
X002804Y006930D01*
X002804Y006616D02*
X003040Y006616D01*
X003670Y006616D02*
X003906Y006616D01*
X003906Y006930D01*
X007155Y007741D02*
X007805Y007741D01*
X007822Y007743D01*
X007839Y007747D01*
X007855Y007754D01*
X007869Y007764D01*
X007882Y007777D01*
X007892Y007791D01*
X007899Y007807D01*
X007903Y007824D01*
X007905Y007841D01*
X007155Y007741D02*
X007138Y007743D01*
X007121Y007747D01*
X007105Y007754D01*
X007091Y007764D01*
X007078Y007777D01*
X007068Y007791D01*
X007061Y007807D01*
X007057Y007824D01*
X007055Y007841D01*
X007055Y008441D02*
X007057Y008458D01*
X007061Y008475D01*
X007068Y008491D01*
X007078Y008505D01*
X007091Y008518D01*
X007105Y008528D01*
X007121Y008535D01*
X007138Y008539D01*
X007155Y008541D01*
X007805Y008541D01*
X007822Y008539D01*
X007839Y008535D01*
X007855Y008528D01*
X007869Y008518D01*
X007882Y008505D01*
X007892Y008491D01*
X007899Y008475D01*
X007903Y008458D01*
X007905Y008441D01*
X011855Y004891D02*
X012105Y005141D01*
X012605Y005141D01*
X012855Y004891D01*
X013105Y005141D01*
X013605Y005141D01*
X013855Y004891D01*
X013855Y004391D01*
X013605Y004141D01*
X013105Y004141D01*
X012855Y004391D01*
X012605Y004141D01*
X012105Y004141D01*
X011855Y004391D01*
X011855Y004891D01*
D17*
X002064Y003570D02*
X002047Y003578D01*
X002047Y003577D02*
X002062Y003611D01*
X002074Y003646D01*
X002084Y003681D01*
X002090Y003717D01*
X002095Y003754D01*
X002096Y003791D01*
X002114Y003791D01*
X002115Y003791D01*
X002114Y003752D01*
X002109Y003714D01*
X002102Y003677D01*
X002092Y003640D01*
X002080Y003604D01*
X002064Y003569D01*
X002063Y003570D01*
X002079Y003604D01*
X002091Y003640D01*
X002101Y003677D01*
X002108Y003715D01*
X002113Y003752D01*
X002114Y003791D01*
X002113Y003791D01*
X002112Y003753D01*
X002107Y003715D01*
X002100Y003677D01*
X002090Y003641D01*
X002078Y003605D01*
X002062Y003570D01*
X002077Y003605D01*
X002089Y003641D01*
X002099Y003678D01*
X002106Y003715D01*
X002111Y003753D01*
X002112Y003791D01*
X002111Y003791D01*
X002110Y003753D01*
X002105Y003715D01*
X002098Y003678D01*
X002088Y003641D01*
X002076Y003606D01*
X002061Y003571D01*
X002060Y003571D01*
X002075Y003606D01*
X002087Y003642D01*
X002097Y003678D01*
X002104Y003715D01*
X002109Y003753D01*
X002110Y003791D01*
X002109Y003791D01*
X002108Y003753D01*
X002103Y003715D01*
X002096Y003678D01*
X002086Y003642D01*
X002074Y003606D01*
X002059Y003572D01*
X002058Y003572D01*
X002073Y003607D01*
X002085Y003642D01*
X002095Y003679D01*
X002102Y003715D01*
X002107Y003753D01*
X002108Y003791D01*
X002107Y003791D01*
X002106Y003753D01*
X002101Y003716D01*
X002094Y003679D01*
X002085Y003642D01*
X002072Y003607D01*
X002057Y003573D01*
X002056Y003573D01*
X002071Y003607D01*
X002084Y003643D01*
X002093Y003679D01*
X002100Y003716D01*
X002105Y003753D01*
X002106Y003791D01*
X002105Y003791D01*
X002104Y003753D01*
X002099Y003716D01*
X002092Y003679D01*
X002083Y003643D01*
X002070Y003608D01*
X002055Y003573D01*
X002054Y003574D01*
X002069Y003608D01*
X002082Y003643D01*
X002091Y003679D01*
X002098Y003716D01*
X002103Y003753D01*
X002104Y003791D01*
X002103Y003791D01*
X002102Y003753D01*
X002097Y003716D01*
X002090Y003680D01*
X002081Y003644D01*
X002068Y003609D01*
X002053Y003574D01*
X002053Y003575D01*
X002067Y003609D01*
X002080Y003644D01*
X002089Y003680D01*
X002096Y003716D01*
X002101Y003753D01*
X002102Y003791D01*
X002101Y003791D01*
X002100Y003753D01*
X002095Y003717D01*
X002088Y003680D01*
X002079Y003644D01*
X002066Y003609D01*
X002052Y003575D01*
X002051Y003576D01*
X002066Y003610D01*
X002078Y003645D01*
X002087Y003680D01*
X002094Y003717D01*
X002099Y003753D01*
X002100Y003791D01*
X002099Y003791D01*
X002098Y003754D01*
X002093Y003717D01*
X002086Y003681D01*
X002077Y003645D01*
X002065Y003610D01*
X002050Y003576D01*
X002049Y003577D01*
X002064Y003610D01*
X002076Y003645D01*
X002086Y003681D01*
X002092Y003717D01*
X002097Y003754D01*
X002098Y003791D01*
X002097Y003791D01*
X002096Y003754D01*
X002091Y003717D01*
X002085Y003681D01*
X002075Y003645D01*
X002063Y003611D01*
X002048Y003577D01*
X001096Y003791D02*
X001115Y003791D01*
X001114Y003791D02*
X001115Y003754D01*
X001120Y003717D01*
X001126Y003681D01*
X001136Y003646D01*
X001148Y003611D01*
X001163Y003577D01*
X001146Y003570D01*
X001146Y003569D01*
X001130Y003604D01*
X001118Y003640D01*
X001108Y003677D01*
X001101Y003714D01*
X001096Y003752D01*
X001095Y003791D01*
X001096Y003791D01*
X001097Y003752D01*
X001102Y003715D01*
X001109Y003677D01*
X001119Y003640D01*
X001131Y003604D01*
X001147Y003570D01*
X001148Y003570D01*
X001132Y003605D01*
X001120Y003641D01*
X001110Y003677D01*
X001103Y003715D01*
X001098Y003753D01*
X001097Y003791D01*
X001098Y003791D01*
X001099Y003753D01*
X001104Y003715D01*
X001111Y003678D01*
X001121Y003641D01*
X001133Y003605D01*
X001148Y003570D01*
X001149Y003571D01*
X001134Y003606D01*
X001122Y003641D01*
X001112Y003678D01*
X001105Y003715D01*
X001100Y003753D01*
X001099Y003791D01*
X001100Y003791D01*
X001101Y003753D01*
X001106Y003715D01*
X001113Y003678D01*
X001123Y003642D01*
X001135Y003606D01*
X001150Y003571D01*
X001151Y003572D01*
X001136Y003606D01*
X001124Y003642D01*
X001114Y003678D01*
X001107Y003715D01*
X001102Y003753D01*
X001101Y003791D01*
X001102Y003791D01*
X001103Y003753D01*
X001108Y003715D01*
X001115Y003679D01*
X001125Y003642D01*
X001137Y003607D01*
X001152Y003572D01*
X001153Y003573D01*
X001138Y003607D01*
X001125Y003642D01*
X001116Y003679D01*
X001109Y003716D01*
X001104Y003753D01*
X001103Y003791D01*
X001104Y003791D01*
X001105Y003753D01*
X001110Y003716D01*
X001117Y003679D01*
X001126Y003643D01*
X001139Y003607D01*
X001154Y003573D01*
X001155Y003573D01*
X001140Y003608D01*
X001127Y003643D01*
X001118Y003679D01*
X001111Y003716D01*
X001106Y003753D01*
X001105Y003791D01*
X001106Y003791D01*
X001107Y003753D01*
X001112Y003716D01*
X001119Y003679D01*
X001128Y003643D01*
X001141Y003608D01*
X001156Y003574D01*
X001157Y003574D01*
X001142Y003609D01*
X001129Y003644D01*
X001120Y003680D01*
X001113Y003716D01*
X001108Y003753D01*
X001107Y003791D01*
X001108Y003791D01*
X001109Y003753D01*
X001114Y003716D01*
X001121Y003680D01*
X001130Y003644D01*
X001143Y003609D01*
X001157Y003575D01*
X001158Y003575D01*
X001144Y003609D01*
X001131Y003644D01*
X001122Y003680D01*
X001115Y003717D01*
X001110Y003753D01*
X001109Y003791D01*
X001110Y003791D01*
X001111Y003753D01*
X001116Y003717D01*
X001123Y003680D01*
X001132Y003645D01*
X001144Y003610D01*
X001159Y003576D01*
X001160Y003576D01*
X001145Y003610D01*
X001133Y003645D01*
X001124Y003681D01*
X001117Y003717D01*
X001112Y003754D01*
X001111Y003791D01*
X001112Y003791D01*
X001113Y003754D01*
X001118Y003717D01*
X001124Y003681D01*
X001134Y003645D01*
X001146Y003610D01*
X001161Y003577D01*
X001162Y003577D01*
X001147Y003611D01*
X001135Y003645D01*
X001125Y003681D01*
X001119Y003717D01*
X001114Y003754D01*
X001113Y003791D01*
X000796Y003791D02*
X000815Y003791D01*
X000814Y003791D02*
X000816Y003736D01*
X000822Y003681D01*
X000831Y003627D01*
X000844Y003574D01*
X000861Y003521D01*
X000882Y003470D01*
X000906Y003421D01*
X000933Y003373D01*
X000964Y003328D01*
X000997Y003284D01*
X001034Y003244D01*
X001073Y003205D01*
X001115Y003170D01*
X001160Y003137D01*
X001149Y003122D01*
X001104Y003155D01*
X001061Y003191D01*
X001020Y003230D01*
X000983Y003272D01*
X000948Y003317D01*
X000917Y003363D01*
X000889Y003412D01*
X000864Y003463D01*
X000844Y003515D01*
X000826Y003568D01*
X000813Y003623D01*
X000803Y003678D01*
X000797Y003734D01*
X000795Y003791D01*
X000796Y003791D01*
X000798Y003734D01*
X000804Y003679D01*
X000814Y003623D01*
X000827Y003569D01*
X000844Y003515D01*
X000865Y003463D01*
X000890Y003413D01*
X000918Y003364D01*
X000949Y003317D01*
X000984Y003273D01*
X001021Y003231D01*
X001061Y003192D01*
X001104Y003156D01*
X001150Y003122D01*
X001150Y003123D01*
X001105Y003156D01*
X001062Y003193D01*
X001022Y003232D01*
X000984Y003274D01*
X000950Y003318D01*
X000919Y003364D01*
X000891Y003413D01*
X000866Y003464D01*
X000845Y003516D01*
X000828Y003569D01*
X000815Y003623D01*
X000805Y003679D01*
X000799Y003734D01*
X000797Y003791D01*
X000798Y003791D01*
X000800Y003735D01*
X000806Y003679D01*
X000816Y003624D01*
X000829Y003569D01*
X000846Y003516D01*
X000867Y003464D01*
X000892Y003414D01*
X000920Y003365D01*
X000951Y003318D01*
X000985Y003274D01*
X001023Y003232D01*
X001063Y003193D01*
X001105Y003157D01*
X001151Y003124D01*
X001151Y003125D01*
X001106Y003158D01*
X001063Y003194D01*
X001023Y003233D01*
X000986Y003275D01*
X000952Y003319D01*
X000920Y003366D01*
X000893Y003414D01*
X000868Y003464D01*
X000847Y003516D01*
X000830Y003570D01*
X000817Y003624D01*
X000807Y003679D01*
X000801Y003735D01*
X000799Y003791D01*
X000800Y003791D01*
X000802Y003735D01*
X000808Y003679D01*
X000818Y003624D01*
X000831Y003570D01*
X000848Y003517D01*
X000869Y003465D01*
X000893Y003414D01*
X000921Y003366D01*
X000952Y003320D01*
X000987Y003275D01*
X001024Y003234D01*
X001064Y003195D01*
X001107Y003159D01*
X001152Y003126D01*
X001152Y003127D01*
X001107Y003160D01*
X001065Y003196D01*
X001025Y003235D01*
X000987Y003276D01*
X000953Y003320D01*
X000922Y003367D01*
X000894Y003415D01*
X000870Y003465D01*
X000849Y003517D01*
X000832Y003570D01*
X000818Y003624D01*
X000809Y003679D01*
X000803Y003735D01*
X000801Y003791D01*
X000802Y003791D01*
X000804Y003735D01*
X000810Y003679D01*
X000819Y003624D01*
X000833Y003570D01*
X000850Y003517D01*
X000871Y003466D01*
X000895Y003415D01*
X000923Y003367D01*
X000954Y003321D01*
X000988Y003277D01*
X001025Y003235D01*
X001065Y003196D01*
X001108Y003160D01*
X001153Y003127D01*
X001153Y003128D01*
X001109Y003161D01*
X001066Y003197D01*
X001026Y003236D01*
X000989Y003277D01*
X000955Y003321D01*
X000924Y003368D01*
X000896Y003416D01*
X000872Y003466D01*
X000851Y003518D01*
X000834Y003571D01*
X000820Y003625D01*
X000811Y003679D01*
X000805Y003735D01*
X000803Y003791D01*
X000804Y003791D01*
X000806Y003735D01*
X000812Y003680D01*
X000821Y003625D01*
X000835Y003571D01*
X000852Y003518D01*
X000873Y003466D01*
X000897Y003416D01*
X000925Y003368D01*
X000956Y003322D01*
X000990Y003278D01*
X001027Y003237D01*
X001067Y003198D01*
X001109Y003162D01*
X001154Y003129D01*
X001155Y003130D01*
X001110Y003163D01*
X001067Y003199D01*
X001028Y003237D01*
X000991Y003279D01*
X000957Y003323D01*
X000926Y003369D01*
X000898Y003417D01*
X000874Y003467D01*
X000853Y003518D01*
X000836Y003571D01*
X000822Y003625D01*
X000813Y003680D01*
X000807Y003735D01*
X000805Y003791D01*
X000806Y003791D01*
X000808Y003735D01*
X000814Y003680D01*
X000823Y003625D01*
X000837Y003571D01*
X000854Y003519D01*
X000875Y003467D01*
X000899Y003417D01*
X000926Y003369D01*
X000957Y003323D01*
X000991Y003279D01*
X001028Y003238D01*
X001068Y003199D01*
X001110Y003163D01*
X001155Y003131D01*
X001156Y003131D01*
X001111Y003164D01*
X001069Y003200D01*
X001029Y003239D01*
X000992Y003280D01*
X000958Y003324D01*
X000927Y003370D01*
X000900Y003418D01*
X000875Y003468D01*
X000855Y003519D01*
X000838Y003572D01*
X000824Y003625D01*
X000815Y003680D01*
X000809Y003735D01*
X000807Y003791D01*
X000808Y003791D01*
X000810Y003735D01*
X000816Y003680D01*
X000825Y003626D01*
X000839Y003572D01*
X000856Y003519D01*
X000876Y003468D01*
X000901Y003418D01*
X000928Y003370D01*
X000959Y003324D01*
X000993Y003281D01*
X001030Y003239D01*
X001069Y003201D01*
X001112Y003165D01*
X001156Y003132D01*
X001157Y003133D01*
X001112Y003166D01*
X001070Y003202D01*
X001030Y003240D01*
X000994Y003281D01*
X000960Y003325D01*
X000929Y003371D01*
X000901Y003419D01*
X000877Y003468D01*
X000857Y003520D01*
X000840Y003572D01*
X000826Y003626D01*
X000817Y003680D01*
X000811Y003735D01*
X000809Y003791D01*
X000810Y003791D01*
X000812Y003735D01*
X000818Y003680D01*
X000827Y003626D01*
X000841Y003573D01*
X000858Y003520D01*
X000878Y003469D01*
X000902Y003419D01*
X000930Y003371D01*
X000961Y003325D01*
X000994Y003282D01*
X001031Y003241D01*
X001071Y003202D01*
X001113Y003167D01*
X001157Y003134D01*
X001158Y003135D01*
X001114Y003167D01*
X001071Y003203D01*
X001032Y003241D01*
X000995Y003283D01*
X000961Y003326D01*
X000931Y003372D01*
X000903Y003420D01*
X000879Y003469D01*
X000859Y003520D01*
X000842Y003573D01*
X000828Y003626D01*
X000819Y003681D01*
X000813Y003735D01*
X000811Y003791D01*
X000812Y003791D01*
X000814Y003735D01*
X000820Y003681D01*
X000829Y003627D01*
X000843Y003573D01*
X000859Y003521D01*
X000880Y003470D01*
X000904Y003420D01*
X000932Y003372D01*
X000962Y003327D01*
X000996Y003283D01*
X001033Y003242D01*
X001072Y003204D01*
X001114Y003168D01*
X001159Y003136D01*
X001115Y003169D01*
X001073Y003204D01*
X001033Y003243D01*
X000997Y003284D01*
X000963Y003327D01*
X000932Y003373D01*
X000905Y003421D01*
X000881Y003470D01*
X000860Y003521D01*
X000843Y003573D01*
X000830Y003627D01*
X000821Y003681D01*
X000815Y003736D01*
X000813Y003791D01*
X002061Y003122D02*
X002050Y003138D01*
X002050Y003137D02*
X002095Y003170D01*
X002137Y003205D01*
X002176Y003243D01*
X002213Y003284D01*
X002246Y003328D01*
X002277Y003373D01*
X002304Y003421D01*
X002328Y003470D01*
X002349Y003521D01*
X002366Y003574D01*
X002379Y003627D01*
X002388Y003681D01*
X002394Y003736D01*
X002396Y003790D01*
X002414Y003791D01*
X002415Y003790D01*
X002413Y003734D01*
X002407Y003678D01*
X002397Y003623D01*
X002384Y003568D01*
X002366Y003515D01*
X002345Y003463D01*
X002321Y003412D01*
X002293Y003363D01*
X002262Y003317D01*
X002227Y003272D01*
X002190Y003230D01*
X002149Y003191D01*
X002106Y003155D01*
X002061Y003122D01*
X002060Y003122D01*
X002106Y003156D01*
X002149Y003192D01*
X002189Y003231D01*
X002226Y003273D01*
X002261Y003317D01*
X002292Y003364D01*
X002320Y003413D01*
X002345Y003463D01*
X002366Y003515D01*
X002383Y003569D01*
X002396Y003623D01*
X002406Y003678D01*
X002412Y003734D01*
X002414Y003790D01*
X002413Y003790D01*
X002411Y003734D01*
X002405Y003679D01*
X002395Y003623D01*
X002382Y003569D01*
X002365Y003516D01*
X002344Y003464D01*
X002319Y003413D01*
X002291Y003364D01*
X002260Y003318D01*
X002226Y003274D01*
X002188Y003232D01*
X002148Y003193D01*
X002105Y003156D01*
X002060Y003123D01*
X002059Y003124D01*
X002105Y003157D01*
X002147Y003193D01*
X002187Y003232D01*
X002225Y003274D01*
X002259Y003318D01*
X002290Y003365D01*
X002318Y003414D01*
X002343Y003464D01*
X002364Y003516D01*
X002381Y003569D01*
X002394Y003624D01*
X002404Y003679D01*
X002410Y003734D01*
X002412Y003790D01*
X002411Y003790D01*
X002409Y003735D01*
X002403Y003679D01*
X002393Y003624D01*
X002380Y003569D01*
X002363Y003516D01*
X002342Y003464D01*
X002317Y003414D01*
X002290Y003365D01*
X002258Y003319D01*
X002224Y003275D01*
X002187Y003233D01*
X002147Y003194D01*
X002104Y003158D01*
X002059Y003125D01*
X002058Y003126D01*
X002103Y003159D01*
X002146Y003195D01*
X002186Y003234D01*
X002223Y003275D01*
X002258Y003320D01*
X002289Y003366D01*
X002317Y003414D01*
X002341Y003465D01*
X002362Y003517D01*
X002379Y003570D01*
X002392Y003624D01*
X002402Y003679D01*
X002408Y003735D01*
X002410Y003790D01*
X002409Y003790D01*
X002407Y003735D01*
X002401Y003679D01*
X002392Y003624D01*
X002378Y003570D01*
X002361Y003517D01*
X002340Y003465D01*
X002316Y003415D01*
X002288Y003367D01*
X002257Y003320D01*
X002222Y003276D01*
X002185Y003234D01*
X002145Y003196D01*
X002103Y003160D01*
X002058Y003127D01*
X002057Y003127D01*
X002102Y003160D01*
X002145Y003196D01*
X002185Y003235D01*
X002222Y003277D01*
X002256Y003321D01*
X002287Y003367D01*
X002315Y003415D01*
X002339Y003466D01*
X002360Y003517D01*
X002377Y003570D01*
X002391Y003624D01*
X002400Y003679D01*
X002406Y003735D01*
X002408Y003790D01*
X002407Y003790D01*
X002405Y003735D01*
X002399Y003679D01*
X002390Y003625D01*
X002376Y003571D01*
X002359Y003518D01*
X002338Y003466D01*
X002314Y003416D01*
X002286Y003368D01*
X002255Y003321D01*
X002221Y003277D01*
X002184Y003236D01*
X002144Y003197D01*
X002101Y003161D01*
X002057Y003128D01*
X002056Y003129D01*
X002101Y003162D01*
X002143Y003198D01*
X002183Y003237D01*
X002220Y003278D01*
X002254Y003322D01*
X002285Y003368D01*
X002313Y003416D01*
X002337Y003466D01*
X002358Y003518D01*
X002375Y003571D01*
X002389Y003625D01*
X002398Y003680D01*
X002404Y003735D01*
X002406Y003790D01*
X002405Y003790D01*
X002403Y003735D01*
X002397Y003680D01*
X002388Y003625D01*
X002374Y003571D01*
X002357Y003518D01*
X002336Y003467D01*
X002312Y003417D01*
X002284Y003369D01*
X002253Y003323D01*
X002219Y003279D01*
X002182Y003237D01*
X002143Y003199D01*
X002100Y003163D01*
X002055Y003130D01*
X002055Y003131D01*
X002100Y003163D01*
X002142Y003199D01*
X002182Y003238D01*
X002219Y003279D01*
X002253Y003323D01*
X002284Y003369D01*
X002311Y003417D01*
X002335Y003467D01*
X002356Y003519D01*
X002373Y003571D01*
X002387Y003625D01*
X002396Y003680D01*
X002402Y003735D01*
X002404Y003790D01*
X002403Y003790D01*
X002401Y003735D01*
X002395Y003680D01*
X002386Y003625D01*
X002372Y003572D01*
X002355Y003519D01*
X002335Y003468D01*
X002310Y003418D01*
X002283Y003370D01*
X002252Y003324D01*
X002218Y003280D01*
X002181Y003239D01*
X002141Y003200D01*
X002099Y003164D01*
X002054Y003131D01*
X002054Y003132D01*
X002098Y003165D01*
X002141Y003201D01*
X002180Y003239D01*
X002217Y003281D01*
X002251Y003324D01*
X002282Y003370D01*
X002309Y003418D01*
X002334Y003468D01*
X002354Y003519D01*
X002371Y003572D01*
X002385Y003626D01*
X002394Y003680D01*
X002400Y003735D01*
X002402Y003790D01*
X002401Y003790D01*
X002399Y003735D01*
X002393Y003680D01*
X002384Y003626D01*
X002370Y003572D01*
X002353Y003520D01*
X002333Y003468D01*
X002309Y003419D01*
X002281Y003371D01*
X002250Y003325D01*
X002216Y003281D01*
X002180Y003240D01*
X002140Y003202D01*
X002098Y003166D01*
X002053Y003133D01*
X002053Y003134D01*
X002097Y003167D01*
X002139Y003202D01*
X002179Y003241D01*
X002216Y003282D01*
X002249Y003325D01*
X002280Y003371D01*
X002308Y003419D01*
X002332Y003469D01*
X002352Y003520D01*
X002369Y003572D01*
X002383Y003626D01*
X002392Y003680D01*
X002398Y003735D01*
X002400Y003790D01*
X002399Y003790D01*
X002397Y003735D01*
X002391Y003681D01*
X002382Y003626D01*
X002368Y003573D01*
X002351Y003520D01*
X002331Y003469D01*
X002307Y003420D01*
X002279Y003372D01*
X002249Y003326D01*
X002215Y003283D01*
X002178Y003241D01*
X002139Y003203D01*
X002096Y003167D01*
X002052Y003135D01*
X002051Y003136D01*
X002096Y003168D01*
X002138Y003204D01*
X002177Y003242D01*
X002214Y003283D01*
X002248Y003327D01*
X002278Y003372D01*
X002306Y003420D01*
X002330Y003470D01*
X002351Y003521D01*
X002367Y003573D01*
X002381Y003626D01*
X002390Y003681D01*
X002396Y003735D01*
X002398Y003790D01*
X002397Y003790D01*
X002395Y003736D01*
X002389Y003681D01*
X002380Y003627D01*
X002366Y003573D01*
X002350Y003521D01*
X002329Y003470D01*
X002305Y003421D01*
X002278Y003373D01*
X002247Y003327D01*
X002213Y003284D01*
X002177Y003243D01*
X002137Y003204D01*
X002095Y003169D01*
X002051Y003136D01*
X001149Y007160D02*
X001160Y007144D01*
X001160Y007145D02*
X001115Y007112D01*
X001073Y007077D01*
X001034Y007039D01*
X000998Y006998D01*
X000964Y006954D01*
X000933Y006909D01*
X000906Y006861D01*
X000882Y006812D01*
X000861Y006761D01*
X000844Y006708D01*
X000831Y006655D01*
X000822Y006601D01*
X000816Y006546D01*
X000814Y006492D01*
X000796Y006491D01*
X000795Y006492D01*
X000797Y006548D01*
X000803Y006604D01*
X000813Y006659D01*
X000826Y006714D01*
X000844Y006767D01*
X000865Y006819D01*
X000889Y006870D01*
X000917Y006919D01*
X000948Y006965D01*
X000983Y007010D01*
X001020Y007052D01*
X001061Y007091D01*
X001104Y007127D01*
X001149Y007160D01*
X001150Y007160D01*
X001104Y007126D01*
X001061Y007090D01*
X001021Y007051D01*
X000984Y007009D01*
X000949Y006965D01*
X000918Y006918D01*
X000890Y006869D01*
X000865Y006819D01*
X000844Y006767D01*
X000827Y006713D01*
X000814Y006659D01*
X000804Y006604D01*
X000798Y006548D01*
X000796Y006492D01*
X000797Y006492D01*
X000799Y006548D01*
X000805Y006603D01*
X000815Y006659D01*
X000828Y006713D01*
X000845Y006766D01*
X000866Y006818D01*
X000891Y006869D01*
X000919Y006918D01*
X000950Y006964D01*
X000984Y007008D01*
X001022Y007050D01*
X001062Y007089D01*
X001105Y007126D01*
X001150Y007159D01*
X001151Y007158D01*
X001106Y007125D01*
X001063Y007089D01*
X001023Y007050D01*
X000985Y007008D01*
X000951Y006964D01*
X000920Y006917D01*
X000892Y006868D01*
X000867Y006818D01*
X000846Y006766D01*
X000829Y006713D01*
X000816Y006658D01*
X000806Y006603D01*
X000800Y006548D01*
X000798Y006492D01*
X000799Y006492D01*
X000801Y006547D01*
X000807Y006603D01*
X000817Y006658D01*
X000830Y006713D01*
X000847Y006766D01*
X000868Y006818D01*
X000893Y006868D01*
X000920Y006917D01*
X000952Y006963D01*
X000986Y007007D01*
X001023Y007049D01*
X001063Y007088D01*
X001106Y007124D01*
X001151Y007157D01*
X001152Y007156D01*
X001107Y007123D01*
X001064Y007087D01*
X001024Y007048D01*
X000987Y007007D01*
X000952Y006962D01*
X000921Y006916D01*
X000893Y006868D01*
X000869Y006817D01*
X000848Y006765D01*
X000831Y006712D01*
X000818Y006658D01*
X000808Y006603D01*
X000802Y006547D01*
X000800Y006492D01*
X000801Y006492D01*
X000803Y006547D01*
X000809Y006603D01*
X000818Y006658D01*
X000832Y006712D01*
X000849Y006765D01*
X000870Y006817D01*
X000894Y006867D01*
X000922Y006915D01*
X000953Y006962D01*
X000988Y007006D01*
X001025Y007048D01*
X001065Y007086D01*
X001107Y007122D01*
X001152Y007155D01*
X001153Y007155D01*
X001108Y007122D01*
X001065Y007086D01*
X001025Y007047D01*
X000988Y007005D01*
X000954Y006961D01*
X000923Y006915D01*
X000895Y006867D01*
X000871Y006816D01*
X000850Y006765D01*
X000833Y006712D01*
X000819Y006658D01*
X000810Y006603D01*
X000804Y006547D01*
X000802Y006492D01*
X000803Y006492D01*
X000805Y006547D01*
X000811Y006603D01*
X000820Y006657D01*
X000834Y006711D01*
X000851Y006764D01*
X000872Y006816D01*
X000896Y006866D01*
X000924Y006914D01*
X000955Y006961D01*
X000989Y007005D01*
X001026Y007046D01*
X001066Y007085D01*
X001109Y007121D01*
X001153Y007154D01*
X001154Y007153D01*
X001109Y007120D01*
X001067Y007084D01*
X001027Y007045D01*
X000990Y007004D01*
X000956Y006960D01*
X000925Y006914D01*
X000897Y006866D01*
X000873Y006816D01*
X000852Y006764D01*
X000835Y006711D01*
X000821Y006657D01*
X000812Y006602D01*
X000806Y006547D01*
X000804Y006492D01*
X000805Y006492D01*
X000807Y006547D01*
X000813Y006602D01*
X000822Y006657D01*
X000836Y006711D01*
X000853Y006764D01*
X000874Y006815D01*
X000898Y006865D01*
X000926Y006913D01*
X000957Y006959D01*
X000991Y007003D01*
X001028Y007045D01*
X001067Y007083D01*
X001110Y007119D01*
X001155Y007152D01*
X001155Y007151D01*
X001110Y007119D01*
X001068Y007083D01*
X001028Y007044D01*
X000991Y007003D01*
X000957Y006959D01*
X000926Y006913D01*
X000899Y006865D01*
X000875Y006815D01*
X000854Y006763D01*
X000837Y006711D01*
X000823Y006657D01*
X000814Y006602D01*
X000808Y006547D01*
X000806Y006492D01*
X000807Y006492D01*
X000809Y006547D01*
X000815Y006602D01*
X000824Y006657D01*
X000838Y006710D01*
X000855Y006763D01*
X000875Y006814D01*
X000900Y006864D01*
X000927Y006912D01*
X000958Y006958D01*
X000992Y007002D01*
X001029Y007043D01*
X001069Y007082D01*
X001111Y007118D01*
X001156Y007151D01*
X001156Y007150D01*
X001112Y007117D01*
X001069Y007081D01*
X001030Y007043D01*
X000993Y007001D01*
X000959Y006958D01*
X000928Y006912D01*
X000901Y006864D01*
X000876Y006814D01*
X000856Y006763D01*
X000839Y006710D01*
X000825Y006656D01*
X000816Y006602D01*
X000810Y006547D01*
X000808Y006492D01*
X000809Y006492D01*
X000811Y006547D01*
X000817Y006602D01*
X000826Y006656D01*
X000840Y006710D01*
X000857Y006762D01*
X000877Y006814D01*
X000901Y006863D01*
X000929Y006911D01*
X000960Y006957D01*
X000994Y007001D01*
X001031Y007042D01*
X001070Y007081D01*
X001112Y007116D01*
X001157Y007149D01*
X001157Y007148D01*
X001113Y007115D01*
X001071Y007080D01*
X001031Y007041D01*
X000994Y007000D01*
X000961Y006957D01*
X000930Y006911D01*
X000902Y006863D01*
X000878Y006813D01*
X000858Y006762D01*
X000841Y006710D01*
X000827Y006656D01*
X000818Y006602D01*
X000812Y006547D01*
X000810Y006492D01*
X000811Y006492D01*
X000813Y006547D01*
X000819Y006601D01*
X000828Y006656D01*
X000842Y006709D01*
X000859Y006762D01*
X000879Y006813D01*
X000903Y006862D01*
X000931Y006910D01*
X000961Y006956D01*
X000995Y007000D01*
X001032Y007041D01*
X001071Y007079D01*
X001114Y007115D01*
X001158Y007147D01*
X001159Y007146D01*
X001114Y007114D01*
X001072Y007078D01*
X001033Y007040D01*
X000996Y006999D01*
X000962Y006955D01*
X000932Y006910D01*
X000904Y006862D01*
X000880Y006812D01*
X000860Y006761D01*
X000843Y006709D01*
X000829Y006656D01*
X000820Y006601D01*
X000814Y006547D01*
X000812Y006492D01*
X000813Y006492D01*
X000815Y006546D01*
X000821Y006601D01*
X000830Y006655D01*
X000844Y006709D01*
X000860Y006761D01*
X000881Y006812D01*
X000905Y006861D01*
X000932Y006909D01*
X000963Y006955D01*
X000997Y006998D01*
X001033Y007039D01*
X001073Y007078D01*
X001115Y007113D01*
X001159Y007146D01*
X002114Y006491D02*
X002095Y006491D01*
X002096Y006491D02*
X002095Y006528D01*
X002090Y006565D01*
X002084Y006601D01*
X002074Y006636D01*
X002062Y006671D01*
X002047Y006705D01*
X002064Y006712D01*
X002064Y006713D01*
X002080Y006678D01*
X002092Y006642D01*
X002102Y006605D01*
X002109Y006568D01*
X002114Y006530D01*
X002115Y006491D01*
X002114Y006491D01*
X002113Y006530D01*
X002108Y006567D01*
X002101Y006605D01*
X002091Y006642D01*
X002079Y006678D01*
X002063Y006712D01*
X002062Y006712D01*
X002078Y006677D01*
X002090Y006641D01*
X002100Y006605D01*
X002107Y006567D01*
X002112Y006529D01*
X002113Y006491D01*
X002112Y006491D01*
X002111Y006529D01*
X002106Y006567D01*
X002099Y006604D01*
X002089Y006641D01*
X002077Y006677D01*
X002062Y006712D01*
X002061Y006711D01*
X002076Y006676D01*
X002088Y006641D01*
X002098Y006604D01*
X002105Y006567D01*
X002110Y006529D01*
X002111Y006491D01*
X002110Y006491D01*
X002109Y006529D01*
X002104Y006567D01*
X002097Y006604D01*
X002087Y006640D01*
X002075Y006676D01*
X002060Y006711D01*
X002059Y006710D01*
X002074Y006676D01*
X002086Y006640D01*
X002096Y006604D01*
X002103Y006567D01*
X002108Y006529D01*
X002109Y006491D01*
X002108Y006491D01*
X002107Y006529D01*
X002102Y006567D01*
X002095Y006603D01*
X002085Y006640D01*
X002073Y006675D01*
X002058Y006710D01*
X002057Y006709D01*
X002072Y006675D01*
X002085Y006640D01*
X002094Y006603D01*
X002101Y006566D01*
X002106Y006529D01*
X002107Y006491D01*
X002106Y006491D01*
X002105Y006529D01*
X002100Y006566D01*
X002093Y006603D01*
X002084Y006639D01*
X002071Y006675D01*
X002056Y006709D01*
X002055Y006709D01*
X002070Y006674D01*
X002083Y006639D01*
X002092Y006603D01*
X002099Y006566D01*
X002104Y006529D01*
X002105Y006491D01*
X002104Y006491D01*
X002103Y006529D01*
X002098Y006566D01*
X002091Y006603D01*
X002082Y006639D01*
X002069Y006674D01*
X002054Y006708D01*
X002053Y006708D01*
X002068Y006673D01*
X002081Y006638D01*
X002090Y006602D01*
X002097Y006566D01*
X002102Y006529D01*
X002103Y006491D01*
X002102Y006491D01*
X002101Y006529D01*
X002096Y006566D01*
X002089Y006602D01*
X002080Y006638D01*
X002067Y006673D01*
X002053Y006707D01*
X002052Y006707D01*
X002066Y006673D01*
X002079Y006638D01*
X002088Y006602D01*
X002095Y006565D01*
X002100Y006529D01*
X002101Y006491D01*
X002100Y006491D01*
X002099Y006529D01*
X002094Y006565D01*
X002087Y006602D01*
X002078Y006637D01*
X002066Y006672D01*
X002051Y006706D01*
X002050Y006706D01*
X002065Y006672D01*
X002077Y006637D01*
X002086Y006601D01*
X002093Y006565D01*
X002098Y006528D01*
X002099Y006491D01*
X002098Y006491D01*
X002097Y006528D01*
X002092Y006565D01*
X002086Y006601D01*
X002076Y006637D01*
X002064Y006672D01*
X002049Y006705D01*
X002048Y006705D01*
X002063Y006671D01*
X002075Y006637D01*
X002085Y006601D01*
X002091Y006565D01*
X002096Y006528D01*
X002097Y006491D01*
X001146Y006712D02*
X001163Y006704D01*
X001163Y006705D02*
X001148Y006671D01*
X001136Y006636D01*
X001126Y006601D01*
X001120Y006565D01*
X001115Y006528D01*
X001114Y006491D01*
X001096Y006491D01*
X001095Y006491D01*
X001096Y006530D01*
X001101Y006568D01*
X001108Y006605D01*
X001118Y006642D01*
X001130Y006678D01*
X001146Y006713D01*
X001147Y006712D01*
X001131Y006678D01*
X001119Y006642D01*
X001109Y006605D01*
X001102Y006567D01*
X001097Y006530D01*
X001096Y006491D01*
X001097Y006491D01*
X001098Y006529D01*
X001103Y006567D01*
X001110Y006605D01*
X001120Y006641D01*
X001132Y006677D01*
X001148Y006712D01*
X001133Y006677D01*
X001121Y006641D01*
X001111Y006604D01*
X001104Y006567D01*
X001099Y006529D01*
X001098Y006491D01*
X001099Y006491D01*
X001100Y006529D01*
X001105Y006567D01*
X001112Y006604D01*
X001122Y006641D01*
X001134Y006676D01*
X001149Y006711D01*
X001150Y006711D01*
X001135Y006676D01*
X001123Y006640D01*
X001113Y006604D01*
X001106Y006567D01*
X001101Y006529D01*
X001100Y006491D01*
X001101Y006491D01*
X001102Y006529D01*
X001107Y006567D01*
X001114Y006604D01*
X001124Y006640D01*
X001136Y006676D01*
X001151Y006710D01*
X001152Y006710D01*
X001137Y006675D01*
X001125Y006640D01*
X001115Y006603D01*
X001108Y006567D01*
X001103Y006529D01*
X001102Y006491D01*
X001103Y006491D01*
X001104Y006529D01*
X001109Y006566D01*
X001116Y006603D01*
X001125Y006640D01*
X001138Y006675D01*
X001153Y006709D01*
X001154Y006709D01*
X001139Y006675D01*
X001126Y006639D01*
X001117Y006603D01*
X001110Y006566D01*
X001105Y006529D01*
X001104Y006491D01*
X001105Y006491D01*
X001106Y006529D01*
X001111Y006566D01*
X001118Y006603D01*
X001127Y006639D01*
X001140Y006674D01*
X001155Y006709D01*
X001156Y006708D01*
X001141Y006674D01*
X001128Y006639D01*
X001119Y006603D01*
X001112Y006566D01*
X001107Y006529D01*
X001106Y006491D01*
X001107Y006491D01*
X001108Y006529D01*
X001113Y006566D01*
X001120Y006602D01*
X001129Y006638D01*
X001142Y006673D01*
X001157Y006708D01*
X001157Y006707D01*
X001143Y006673D01*
X001130Y006638D01*
X001121Y006602D01*
X001114Y006566D01*
X001109Y006529D01*
X001108Y006491D01*
X001109Y006491D01*
X001110Y006529D01*
X001115Y006565D01*
X001122Y006602D01*
X001131Y006638D01*
X001144Y006673D01*
X001158Y006707D01*
X001159Y006706D01*
X001144Y006672D01*
X001132Y006637D01*
X001123Y006602D01*
X001116Y006565D01*
X001111Y006529D01*
X001110Y006491D01*
X001111Y006491D01*
X001112Y006528D01*
X001117Y006565D01*
X001124Y006601D01*
X001133Y006637D01*
X001145Y006672D01*
X001160Y006706D01*
X001161Y006705D01*
X001146Y006672D01*
X001134Y006637D01*
X001124Y006601D01*
X001118Y006565D01*
X001113Y006528D01*
X001112Y006491D01*
X001113Y006491D01*
X001114Y006528D01*
X001119Y006565D01*
X001125Y006601D01*
X001135Y006637D01*
X001147Y006671D01*
X001162Y006705D01*
X002414Y006491D02*
X002395Y006491D01*
X002396Y006491D02*
X002394Y006546D01*
X002388Y006601D01*
X002379Y006655D01*
X002366Y006708D01*
X002349Y006761D01*
X002328Y006812D01*
X002304Y006861D01*
X002277Y006909D01*
X002246Y006954D01*
X002213Y006998D01*
X002176Y007038D01*
X002137Y007077D01*
X002095Y007112D01*
X002050Y007145D01*
X002061Y007160D01*
X002106Y007127D01*
X002149Y007091D01*
X002190Y007052D01*
X002227Y007010D01*
X002262Y006965D01*
X002293Y006919D01*
X002321Y006870D01*
X002346Y006819D01*
X002366Y006767D01*
X002384Y006714D01*
X002397Y006659D01*
X002407Y006604D01*
X002413Y006548D01*
X002415Y006491D01*
X002414Y006491D01*
X002412Y006548D01*
X002406Y006603D01*
X002396Y006659D01*
X002383Y006713D01*
X002366Y006767D01*
X002345Y006819D01*
X002320Y006869D01*
X002292Y006918D01*
X002261Y006965D01*
X002226Y007009D01*
X002189Y007051D01*
X002149Y007090D01*
X002106Y007126D01*
X002060Y007160D01*
X002060Y007159D01*
X002105Y007126D01*
X002148Y007089D01*
X002188Y007050D01*
X002226Y007008D01*
X002260Y006964D01*
X002291Y006918D01*
X002319Y006869D01*
X002344Y006818D01*
X002365Y006766D01*
X002382Y006713D01*
X002395Y006659D01*
X002405Y006603D01*
X002411Y006548D01*
X002413Y006491D01*
X002412Y006491D01*
X002410Y006547D01*
X002404Y006603D01*
X002394Y006658D01*
X002381Y006713D01*
X002364Y006766D01*
X002343Y006818D01*
X002318Y006868D01*
X002290Y006917D01*
X002259Y006964D01*
X002225Y007008D01*
X002187Y007050D01*
X002147Y007089D01*
X002105Y007125D01*
X002059Y007158D01*
X002059Y007157D01*
X002104Y007124D01*
X002147Y007088D01*
X002187Y007049D01*
X002224Y007007D01*
X002258Y006963D01*
X002290Y006916D01*
X002317Y006868D01*
X002342Y006818D01*
X002363Y006766D01*
X002380Y006712D01*
X002393Y006658D01*
X002403Y006603D01*
X002409Y006547D01*
X002411Y006491D01*
X002410Y006491D01*
X002408Y006547D01*
X002402Y006603D01*
X002392Y006658D01*
X002379Y006712D01*
X002362Y006765D01*
X002341Y006817D01*
X002317Y006868D01*
X002289Y006916D01*
X002258Y006962D01*
X002223Y007007D01*
X002186Y007048D01*
X002146Y007087D01*
X002103Y007123D01*
X002058Y007156D01*
X002058Y007155D01*
X002103Y007122D01*
X002145Y007086D01*
X002185Y007047D01*
X002223Y007006D01*
X002257Y006962D01*
X002288Y006915D01*
X002316Y006867D01*
X002340Y006817D01*
X002361Y006765D01*
X002378Y006712D01*
X002392Y006658D01*
X002401Y006603D01*
X002407Y006547D01*
X002409Y006491D01*
X002408Y006491D01*
X002406Y006547D01*
X002400Y006603D01*
X002391Y006658D01*
X002377Y006712D01*
X002360Y006765D01*
X002339Y006816D01*
X002315Y006867D01*
X002287Y006915D01*
X002256Y006961D01*
X002222Y007005D01*
X002185Y007047D01*
X002145Y007086D01*
X002102Y007122D01*
X002057Y007155D01*
X002057Y007154D01*
X002101Y007121D01*
X002144Y007085D01*
X002184Y007046D01*
X002221Y007005D01*
X002255Y006961D01*
X002286Y006914D01*
X002314Y006866D01*
X002338Y006816D01*
X002359Y006764D01*
X002376Y006711D01*
X002390Y006657D01*
X002399Y006603D01*
X002405Y006547D01*
X002407Y006491D01*
X002406Y006491D01*
X002404Y006547D01*
X002398Y006602D01*
X002389Y006657D01*
X002375Y006711D01*
X002358Y006764D01*
X002337Y006816D01*
X002313Y006866D01*
X002285Y006914D01*
X002254Y006960D01*
X002220Y007004D01*
X002183Y007045D01*
X002143Y007084D01*
X002101Y007120D01*
X002056Y007153D01*
X002055Y007152D01*
X002100Y007119D01*
X002143Y007083D01*
X002182Y007045D01*
X002219Y007003D01*
X002253Y006959D01*
X002284Y006913D01*
X002312Y006865D01*
X002336Y006815D01*
X002357Y006764D01*
X002374Y006711D01*
X002388Y006657D01*
X002397Y006602D01*
X002403Y006547D01*
X002405Y006491D01*
X002404Y006491D01*
X002402Y006547D01*
X002396Y006602D01*
X002387Y006657D01*
X002373Y006711D01*
X002356Y006763D01*
X002335Y006815D01*
X002311Y006865D01*
X002284Y006913D01*
X002253Y006959D01*
X002219Y007003D01*
X002182Y007044D01*
X002142Y007083D01*
X002100Y007119D01*
X002055Y007151D01*
X002054Y007151D01*
X002099Y007118D01*
X002141Y007082D01*
X002181Y007043D01*
X002218Y007002D01*
X002252Y006958D01*
X002283Y006912D01*
X002310Y006864D01*
X002335Y006814D01*
X002355Y006763D01*
X002372Y006710D01*
X002386Y006657D01*
X002395Y006602D01*
X002401Y006547D01*
X002403Y006491D01*
X002402Y006491D01*
X002400Y006547D01*
X002394Y006602D01*
X002385Y006656D01*
X002371Y006710D01*
X002354Y006763D01*
X002334Y006814D01*
X002309Y006864D01*
X002282Y006912D01*
X002251Y006958D01*
X002217Y007001D01*
X002180Y007043D01*
X002141Y007081D01*
X002098Y007117D01*
X002054Y007150D01*
X002053Y007149D01*
X002098Y007116D01*
X002140Y007080D01*
X002180Y007042D01*
X002216Y007001D01*
X002250Y006957D01*
X002281Y006911D01*
X002309Y006863D01*
X002333Y006814D01*
X002353Y006762D01*
X002370Y006710D01*
X002384Y006656D01*
X002393Y006602D01*
X002399Y006547D01*
X002401Y006491D01*
X002400Y006491D01*
X002398Y006547D01*
X002392Y006602D01*
X002383Y006656D01*
X002369Y006709D01*
X002352Y006762D01*
X002332Y006813D01*
X002308Y006863D01*
X002280Y006911D01*
X002249Y006957D01*
X002216Y007000D01*
X002179Y007041D01*
X002139Y007080D01*
X002097Y007115D01*
X002053Y007148D01*
X002052Y007147D01*
X002096Y007115D01*
X002139Y007079D01*
X002178Y007041D01*
X002215Y006999D01*
X002249Y006956D01*
X002279Y006910D01*
X002307Y006862D01*
X002331Y006813D01*
X002351Y006762D01*
X002368Y006709D01*
X002382Y006656D01*
X002391Y006601D01*
X002397Y006547D01*
X002399Y006491D01*
X002398Y006491D01*
X002396Y006547D01*
X002390Y006601D01*
X002381Y006655D01*
X002367Y006709D01*
X002351Y006761D01*
X002330Y006812D01*
X002306Y006862D01*
X002278Y006910D01*
X002248Y006955D01*
X002214Y006999D01*
X002177Y007040D01*
X002138Y007078D01*
X002096Y007114D01*
X002051Y007146D01*
X002095Y007113D01*
X002137Y007078D01*
X002177Y007039D01*
X002213Y006998D01*
X002247Y006955D01*
X002278Y006909D01*
X002305Y006861D01*
X002329Y006812D01*
X002350Y006761D01*
X002367Y006709D01*
X002380Y006655D01*
X002389Y006601D01*
X002395Y006546D01*
X002397Y006491D01*
D18*
X002405Y006491D02*
X002405Y003791D01*
X002105Y003791D02*
X002105Y006491D01*
X001105Y006491D02*
X001105Y003791D01*
X000805Y003791D02*
X000805Y006491D01*
X001605Y005541D02*
X001605Y005391D01*
X001605Y004891D02*
X001605Y004741D01*
M02*
