%
M48
M72
T01C0.0120
T02C0.0315
T03C0.0400
%
T01
X11410Y2490
X2320Y7600
X2940Y5940
X3000Y3580
X7220Y4660
X10440Y4040
X8780Y3900
X2300Y540
X3320Y8320
X11000Y3900
X5460Y5860
X2300Y860
X3880Y6240
X3880Y4740
X7500Y3020
X6956Y3380
X8660Y2860
X6480Y4060
X7260Y6260
X9090Y6370
X10520Y4760
X6800Y4060
X4080Y4380
X5520Y6240
X6760Y6900
X6160Y6480
X6460Y7520
X3380Y3320
X5800Y6700
X8240Y6510
X8160Y1000
X5240Y6700
X9440Y6640
X8400Y800
X4920Y7600
X4220Y880
X2720Y5720
X2740Y6820
X3380Y3640
X3000Y4100
X9680Y4120
X9140Y4120
T02
X750Y440
X1750Y440
X2750Y440
X3750Y440
X4750Y440
X5750Y440
X6750Y440
X7750Y440
X8750Y440
X9750Y440
X10750Y440
X11750Y440
X12750Y440
X750Y1250
X1750Y1250
X2750Y1250
X3750Y1250
X4750Y1250
X5750Y1250
X6750Y1250
X7750Y1250
X8750Y1250
X9750Y1250
X10750Y1250
X11750Y1250
X12750Y1250
T03
X11750Y4500
X12750Y4500
X12750Y5750
X11750Y5750
X10750Y5750
X9750Y5750
X8750Y5750
X7750Y5750
M30
