G75*
G70*
%OFA0B0*%
%FSLAX24Y24*%
%IPPOS*%
%LPD*%
%AMOC8*
5,1,8,0,0,1.08239X$1,22.5*
%
%ADD10C,0.0000*%
%ADD11R,0.0500X0.0220*%
%ADD12R,0.0220X0.0500*%
%ADD13R,0.0472X0.0472*%
%ADD14R,0.0472X0.1260*%
D10*
X000605Y000141D02*
X000605Y008718D01*
X014134Y008718D01*
X014134Y000141D01*
X000605Y000141D01*
D11*
X003988Y004506D03*
X003988Y004821D03*
X003988Y005136D03*
X003988Y005451D03*
X003988Y005765D03*
X003988Y006080D03*
X003988Y006395D03*
X003988Y006710D03*
X007368Y006710D03*
X007368Y006395D03*
X007368Y006080D03*
X007368Y005765D03*
X007368Y005451D03*
X007368Y005136D03*
X007368Y004821D03*
X007368Y004506D03*
D12*
X006780Y003918D03*
X006465Y003918D03*
X006150Y003918D03*
X005835Y003918D03*
X005520Y003918D03*
X005205Y003918D03*
X004891Y003918D03*
X004576Y003918D03*
X004576Y007298D03*
X004891Y007298D03*
X005205Y007298D03*
X005520Y007298D03*
X005835Y007298D03*
X006150Y007298D03*
X006465Y007298D03*
X006780Y007298D03*
D13*
X002018Y008141D03*
X001191Y008141D03*
X012441Y003391D03*
X013268Y003391D03*
D14*
X002892Y003703D03*
X001317Y003703D03*
X001317Y006380D03*
X002892Y006380D03*
M02*
