G75*
G70*
%OFA0B0*%
%FSLAX24Y24*%
%IPPOS*%
%LPD*%
%AMOC8*
5,1,8,0,0,1.08239X$1,22.5*
%
%ADD10C,0.0000*%
%ADD11C,0.0060*%
%ADD12C,0.0020*%
%ADD13C,0.0050*%
%ADD14C,0.0070*%
%ADD15C,0.0040*%
%ADD16C,0.0100*%
%ADD17R,0.0024X0.0008*%
%ADD18R,0.0040X0.0008*%
%ADD19R,0.0048X0.0008*%
%ADD20R,0.0072X0.0008*%
%ADD21R,0.0088X0.0008*%
%ADD22R,0.0104X0.0008*%
%ADD23R,0.0120X0.0008*%
%ADD24R,0.0136X0.0008*%
%ADD25R,0.0152X0.0008*%
%ADD26R,0.0176X0.0008*%
%ADD27R,0.0184X0.0008*%
%ADD28R,0.0200X0.0008*%
%ADD29R,0.0200X0.0008*%
%ADD30R,0.0192X0.0008*%
%ADD31R,0.0904X0.0008*%
%ADD32R,0.0776X0.0008*%
%ADD33R,0.0888X0.0008*%
%ADD34R,0.0880X0.0008*%
%ADD35R,0.0864X0.0008*%
%ADD36R,0.0776X0.0008*%
%ADD37R,0.0856X0.0008*%
%ADD38R,0.0848X0.0008*%
%ADD39R,0.0832X0.0008*%
%ADD40R,0.0824X0.0008*%
%ADD41R,0.0808X0.0008*%
%ADD42R,0.0800X0.0008*%
%ADD43R,0.0792X0.0008*%
%ADD44R,0.0768X0.0008*%
%ADD45R,0.0752X0.0008*%
%ADD46R,0.0744X0.0008*%
%ADD47R,0.0120X0.0008*%
%ADD48R,0.0128X0.0008*%
%ADD49R,0.0192X0.0008*%
%ADD50R,0.0656X0.0008*%
%ADD51R,0.0536X0.0008*%
%ADD52R,0.0240X0.0008*%
%ADD53R,0.0600X0.0008*%
%ADD54R,0.0288X0.0008*%
%ADD55R,0.0624X0.0008*%
%ADD56R,0.0304X0.0008*%
%ADD57R,0.0640X0.0008*%
%ADD58R,0.0336X0.0008*%
%ADD59R,0.0664X0.0008*%
%ADD60R,0.0656X0.0008*%
%ADD61R,0.0360X0.0008*%
%ADD62R,0.0664X0.0008*%
%ADD63R,0.0664X0.0008*%
%ADD64R,0.0384X0.0008*%
%ADD65R,0.0672X0.0008*%
%ADD66R,0.0400X0.0008*%
%ADD67R,0.0680X0.0008*%
%ADD68R,0.0416X0.0008*%
%ADD69R,0.0552X0.0008*%
%ADD70R,0.0672X0.0008*%
%ADD71R,0.0696X0.0008*%
%ADD72R,0.0552X0.0008*%
%ADD73R,0.0696X0.0008*%
%ADD74R,0.0560X0.0008*%
%ADD75R,0.0704X0.0008*%
%ADD76R,0.0568X0.0008*%
%ADD77R,0.0704X0.0008*%
%ADD78R,0.0568X0.0008*%
%ADD79R,0.1288X0.0008*%
%ADD80R,0.0920X0.0008*%
%ADD81R,0.0320X0.0008*%
%ADD82R,0.0912X0.0008*%
%ADD83R,0.0312X0.0008*%
%ADD84R,0.0432X0.0008*%
%ADD85R,0.0448X0.0008*%
%ADD86R,0.1192X0.0008*%
%ADD87R,0.0416X0.0008*%
%ADD88R,0.0304X0.0008*%
%ADD89R,0.1192X0.0008*%
%ADD90R,0.0408X0.0008*%
%ADD91R,0.0328X0.0008*%
%ADD92R,0.0728X0.0008*%
%ADD93R,0.0328X0.0008*%
%ADD94R,0.0720X0.0008*%
%ADD95R,0.0392X0.0008*%
%ADD96R,0.0720X0.0008*%
%ADD97R,0.0392X0.0008*%
%ADD98R,0.0488X0.0008*%
%ADD99R,0.0224X0.0008*%
%ADD100R,0.0488X0.0008*%
%ADD101R,0.0224X0.0008*%
%ADD102R,0.0480X0.0008*%
%ADD103R,0.0472X0.0008*%
%ADD104R,0.0472X0.0008*%
%ADD105R,0.0312X0.0008*%
%ADD106R,0.0216X0.0008*%
%ADD107R,0.0192X0.0008*%
%ADD108R,0.0336X0.0008*%
%ADD109R,0.0216X0.0008*%
%ADD110R,0.0352X0.0008*%
%ADD111R,0.0192X0.0008*%
%ADD112R,0.0184X0.0008*%
%ADD113R,0.0360X0.0008*%
%ADD114R,0.0208X0.0008*%
%ADD115R,0.0368X0.0008*%
%ADD116R,0.0184X0.0008*%
%ADD117R,0.0408X0.0008*%
%ADD118R,0.0416X0.0008*%
%ADD119R,0.0256X0.0008*%
%ADD120R,0.0440X0.0008*%
%ADD121R,0.0328X0.0008*%
%ADD122R,0.0336X0.0008*%
%ADD123R,0.0344X0.0008*%
%ADD124R,0.0472X0.0008*%
%ADD125R,0.0344X0.0008*%
%ADD126R,0.0464X0.0008*%
%ADD127R,0.0176X0.0008*%
%ADD128R,0.0456X0.0008*%
%ADD129R,0.0352X0.0008*%
%ADD130R,0.0440X0.0008*%
%ADD131R,0.0352X0.0008*%
%ADD132R,0.0424X0.0008*%
%ADD133R,0.0344X0.0008*%
%ADD134R,0.0176X0.0008*%
%ADD135R,0.0184X0.0008*%
%ADD136R,0.0216X0.0008*%
%ADD137R,0.0296X0.0008*%
%ADD138R,0.0280X0.0008*%
%ADD139R,0.0264X0.0008*%
%ADD140R,0.0448X0.0008*%
%ADD141R,0.0424X0.0008*%
%ADD142R,0.0400X0.0008*%
%ADD143R,0.0376X0.0008*%
%ADD144R,0.0368X0.0008*%
%ADD145R,0.0408X0.0008*%
%ADD146R,0.0480X0.0008*%
%ADD147R,0.0584X0.0008*%
%ADD148R,0.0576X0.0008*%
%ADD149R,0.0464X0.0008*%
%ADD150R,0.0328X0.0008*%
%ADD151R,0.0432X0.0008*%
%ADD152R,0.0376X0.0008*%
%ADD153R,0.0392X0.0008*%
%ADD154R,0.0376X0.0008*%
%ADD155R,0.0320X0.0008*%
%ADD156R,0.0272X0.0008*%
%ADD157R,0.0224X0.0008*%
%ADD158R,0.0064X0.0008*%
%ADD159R,0.0704X0.0008*%
%ADD160R,0.0704X0.0008*%
%ADD161R,0.2048X0.0008*%
%ADD162R,0.2048X0.0008*%
D10*
X000605Y000141D02*
X000605Y008718D01*
X014134Y008718D01*
X014134Y000141D01*
X000605Y000141D01*
D11*
X004298Y004228D02*
X004298Y006848D01*
X004438Y006988D01*
X007058Y006988D01*
X007058Y004228D01*
X004298Y004228D01*
X004457Y006688D02*
X004459Y006711D01*
X004465Y006734D01*
X004474Y006755D01*
X004487Y006775D01*
X004503Y006792D01*
X004521Y006806D01*
X004541Y006817D01*
X004563Y006825D01*
X004586Y006829D01*
X004610Y006829D01*
X004633Y006825D01*
X004655Y006817D01*
X004675Y006806D01*
X004693Y006792D01*
X004709Y006775D01*
X004722Y006755D01*
X004731Y006734D01*
X004737Y006711D01*
X004739Y006688D01*
X004737Y006665D01*
X004731Y006642D01*
X004722Y006621D01*
X004709Y006601D01*
X004693Y006584D01*
X004675Y006570D01*
X004655Y006559D01*
X004633Y006551D01*
X004610Y006547D01*
X004586Y006547D01*
X004563Y006551D01*
X004541Y006559D01*
X004521Y006570D01*
X004503Y006584D01*
X004487Y006601D01*
X004474Y006621D01*
X004465Y006642D01*
X004459Y006665D01*
X004457Y006688D01*
X002249Y007394D02*
X002176Y007321D01*
X002029Y007321D01*
X001955Y007394D01*
X001789Y007321D02*
X001495Y007321D01*
X001642Y007321D02*
X001642Y007761D01*
X001495Y007615D01*
X001328Y007688D02*
X001255Y007761D01*
X001035Y007761D01*
X001035Y007321D01*
X001255Y007321D01*
X001328Y007394D01*
X001328Y007688D01*
X001955Y007688D02*
X002029Y007761D01*
X002176Y007761D01*
X002249Y007688D01*
X002249Y007615D01*
X002176Y007541D01*
X002249Y007468D01*
X002249Y007394D01*
X002176Y007541D02*
X002102Y007541D01*
X008305Y004901D02*
X008305Y004771D01*
X008455Y004741D01*
X008505Y004611D01*
X008425Y004481D01*
X008515Y004391D01*
X008635Y004471D01*
X008685Y004441D01*
X008785Y004671D01*
X008755Y004641D02*
X008655Y004491D01*
X008505Y004441D01*
X008455Y004491D01*
X008555Y004641D01*
X008455Y004791D01*
X008355Y004791D01*
X008355Y004891D01*
X008505Y004891D01*
X008555Y005041D01*
X008455Y005191D01*
X008505Y005241D01*
X008655Y005141D01*
X008805Y005241D01*
X008805Y005341D01*
X008905Y005341D01*
X008955Y005191D01*
X009105Y005141D01*
X009205Y005241D01*
X009255Y005191D01*
X009205Y005041D01*
X009255Y004891D01*
X009405Y004891D01*
X009355Y004791D01*
X009205Y004741D01*
X009205Y004591D01*
X009255Y004491D01*
X009205Y004441D01*
X009105Y004491D01*
X009055Y004491D01*
X009005Y004641D01*
X009105Y004841D01*
X009005Y004991D01*
X008855Y005041D01*
X008705Y004991D01*
X008655Y004841D01*
X008705Y004691D01*
X008755Y004641D01*
X008747Y004649D02*
X008550Y004649D01*
X008521Y004590D02*
X008721Y004590D01*
X008682Y004532D02*
X008482Y004532D01*
X008473Y004473D02*
X008601Y004473D01*
X008510Y004707D02*
X008699Y004707D01*
X008680Y004766D02*
X008471Y004766D01*
X008355Y004825D02*
X008660Y004825D01*
X008669Y004883D02*
X008355Y004883D01*
X008305Y004901D02*
X008455Y004921D01*
X008515Y005051D01*
X008425Y005181D01*
X008515Y005271D01*
X008645Y005181D01*
X008765Y005231D01*
X008795Y005391D01*
X008925Y005391D01*
X008955Y005231D01*
X009075Y005181D01*
X009215Y005271D01*
X009305Y005181D01*
X009215Y005051D01*
X009265Y004931D01*
X009415Y004901D01*
X009415Y004771D01*
X009275Y004741D01*
X009215Y004611D01*
X009305Y004481D01*
X009215Y004391D01*
X009095Y004471D01*
X009035Y004441D01*
X008945Y004671D01*
X009009Y004649D02*
X009205Y004649D01*
X009205Y004707D02*
X009038Y004707D01*
X009067Y004766D02*
X009279Y004766D01*
X009371Y004825D02*
X009096Y004825D01*
X009077Y004883D02*
X009401Y004883D01*
X009238Y004942D02*
X009038Y004942D01*
X008977Y005000D02*
X009218Y005000D01*
X009211Y005059D02*
X008543Y005059D01*
X008541Y005000D02*
X008732Y005000D01*
X008688Y004942D02*
X008522Y004942D01*
X008504Y005117D02*
X009230Y005117D01*
X009250Y005176D02*
X009139Y005176D01*
X009198Y005234D02*
X009211Y005234D01*
X009001Y005176D02*
X008707Y005176D01*
X008603Y005176D02*
X008465Y005176D01*
X008498Y005234D02*
X008515Y005234D01*
X008795Y005234D02*
X008940Y005234D01*
X008921Y005293D02*
X008805Y005293D01*
X008785Y004671D02*
X008763Y004684D01*
X008743Y004700D01*
X008725Y004719D01*
X008710Y004741D01*
X008699Y004764D01*
X008691Y004789D01*
X008687Y004814D01*
X008686Y004840D01*
X008689Y004866D01*
X008696Y004891D01*
X008707Y004914D01*
X008720Y004936D01*
X008737Y004956D01*
X008756Y004973D01*
X008778Y004988D01*
X008802Y004998D01*
X008826Y005006D01*
X008852Y005010D01*
X008878Y005010D01*
X008904Y005006D01*
X008928Y004998D01*
X008952Y004988D01*
X008974Y004973D01*
X008993Y004956D01*
X009010Y004936D01*
X009023Y004914D01*
X009034Y004891D01*
X009041Y004866D01*
X009044Y004840D01*
X009043Y004814D01*
X009039Y004789D01*
X009031Y004764D01*
X009020Y004741D01*
X009005Y004719D01*
X008987Y004700D01*
X008967Y004684D01*
X008945Y004671D01*
X009022Y004590D02*
X009205Y004590D01*
X009234Y004532D02*
X009041Y004532D01*
X009140Y004473D02*
X009237Y004473D01*
D12*
X009318Y002881D02*
X009128Y002881D01*
X009128Y002501D01*
X009128Y002628D02*
X009318Y002628D01*
X009382Y002691D01*
X009382Y002818D01*
X009318Y002881D01*
X009496Y002691D02*
X009560Y002755D01*
X009750Y002755D01*
X009687Y002628D02*
X009560Y002628D01*
X009496Y002691D01*
X009496Y002501D02*
X009687Y002501D01*
X009750Y002564D01*
X009687Y002628D01*
X009382Y002501D02*
X009255Y002628D01*
X008698Y002755D02*
X008635Y002755D01*
X008508Y002628D01*
X008508Y002501D02*
X008508Y002755D01*
X008393Y002755D02*
X008266Y002881D01*
X008139Y002755D01*
X008139Y002501D01*
X008393Y002501D02*
X008393Y002755D01*
X008393Y002691D02*
X008139Y002691D01*
X007700Y002691D02*
X007700Y002564D01*
X007637Y002501D01*
X007510Y002501D01*
X007446Y002564D01*
X007446Y002691D02*
X007573Y002755D01*
X007637Y002755D01*
X007700Y002691D01*
X007700Y002881D02*
X007446Y002881D01*
X007446Y002691D01*
X007332Y002691D02*
X007078Y002691D01*
X007078Y002755D02*
X007205Y002881D01*
X007332Y002755D01*
X007332Y002501D01*
X007078Y002501D02*
X007078Y002755D01*
X006650Y002691D02*
X006396Y002691D01*
X006587Y002881D01*
X006587Y002501D01*
X006282Y002501D02*
X006282Y002755D01*
X006155Y002881D01*
X006028Y002755D01*
X006028Y002501D01*
X006028Y002691D02*
X006282Y002691D01*
X005700Y002628D02*
X005700Y002564D01*
X005637Y002501D01*
X005510Y002501D01*
X005446Y002564D01*
X005332Y002501D02*
X005332Y002755D01*
X005205Y002881D01*
X005078Y002755D01*
X005078Y002501D01*
X005078Y002691D02*
X005332Y002691D01*
X005446Y002818D02*
X005510Y002881D01*
X005637Y002881D01*
X005700Y002818D01*
X005700Y002755D01*
X005637Y002691D01*
X005700Y002628D01*
X005637Y002691D02*
X005573Y002691D01*
X004700Y002755D02*
X004700Y002818D01*
X004637Y002881D01*
X004510Y002881D01*
X004446Y002818D01*
X004332Y002755D02*
X004332Y002501D01*
X004446Y002501D02*
X004700Y002755D01*
X004700Y002501D02*
X004446Y002501D01*
X004332Y002691D02*
X004078Y002691D01*
X004078Y002755D02*
X004205Y002881D01*
X004332Y002755D01*
X004078Y002755D02*
X004078Y002501D01*
X003700Y002501D02*
X003446Y002501D01*
X003332Y002501D02*
X003332Y002755D01*
X003205Y002881D01*
X003078Y002755D01*
X003078Y002501D01*
X003078Y002691D02*
X003332Y002691D01*
X003446Y002755D02*
X003573Y002881D01*
X003573Y002501D01*
X002700Y002564D02*
X002637Y002501D01*
X002510Y002501D01*
X002446Y002564D01*
X002700Y002818D01*
X002700Y002564D01*
X002446Y002564D02*
X002446Y002818D01*
X002510Y002881D01*
X002637Y002881D01*
X002700Y002818D01*
X002332Y002755D02*
X002332Y002501D01*
X002332Y002691D02*
X002078Y002691D01*
X002078Y002755D02*
X002205Y002881D01*
X002332Y002755D01*
X002078Y002755D02*
X002078Y002501D01*
X001800Y002564D02*
X001737Y002501D01*
X001610Y002501D01*
X001546Y002564D01*
X001432Y002501D02*
X001178Y002501D01*
X001305Y002501D02*
X001305Y002881D01*
X001178Y002755D01*
X001063Y002818D02*
X001000Y002881D01*
X000810Y002881D01*
X000810Y002501D01*
X001000Y002501D01*
X001063Y002564D01*
X001063Y002818D01*
X001546Y002818D02*
X001610Y002881D01*
X001737Y002881D01*
X001800Y002818D01*
X001800Y002755D01*
X001737Y002691D01*
X001800Y002628D01*
X001800Y002564D01*
X001737Y002691D02*
X001673Y002691D01*
X010360Y002628D02*
X010487Y002501D01*
X010613Y002628D01*
X010613Y002881D01*
X010728Y002818D02*
X010728Y002564D01*
X010791Y002501D01*
X010918Y002501D01*
X010982Y002564D01*
X011096Y002564D02*
X011160Y002501D01*
X011287Y002501D01*
X011350Y002564D01*
X011096Y002564D02*
X011096Y002818D01*
X011160Y002881D01*
X011287Y002881D01*
X011350Y002818D01*
X010982Y002818D02*
X010918Y002881D01*
X010791Y002881D01*
X010728Y002818D01*
X010360Y002881D02*
X010360Y002628D01*
X012310Y002564D02*
X012373Y002501D01*
X012500Y002501D01*
X012563Y002564D01*
X012563Y002691D01*
X012437Y002691D01*
X012563Y002818D02*
X012500Y002881D01*
X012373Y002881D01*
X012310Y002818D01*
X012310Y002564D01*
X012678Y002501D02*
X012678Y002881D01*
X012932Y002501D01*
X012932Y002881D01*
X013046Y002881D02*
X013237Y002881D01*
X013300Y002818D01*
X013300Y002564D01*
X013237Y002501D01*
X013046Y002501D01*
X013046Y002881D01*
D13*
X012933Y003234D02*
X012933Y003391D01*
X012776Y003234D01*
X012776Y003549D01*
X012933Y003391D01*
X012933Y003549D01*
X013210Y002216D02*
X013210Y001866D01*
X013093Y001866D02*
X013327Y001866D01*
X013461Y001866D02*
X013695Y002100D01*
X013695Y002158D01*
X013637Y002216D01*
X013520Y002216D01*
X013461Y002158D01*
X013210Y002216D02*
X013093Y002100D01*
X013461Y001866D02*
X013695Y001866D01*
X012695Y001866D02*
X012461Y001866D01*
X012578Y001866D02*
X012578Y002216D01*
X012461Y002100D01*
X012210Y002216D02*
X012210Y001866D01*
X012093Y001866D02*
X012327Y001866D01*
X012093Y002100D02*
X012210Y002216D01*
X011695Y002158D02*
X011695Y001924D01*
X011637Y001866D01*
X011520Y001866D01*
X011461Y001924D01*
X011695Y002158D01*
X011637Y002216D01*
X011520Y002216D01*
X011461Y002158D01*
X011461Y001924D01*
X011327Y001866D02*
X011093Y001866D01*
X011210Y001866D02*
X011210Y002216D01*
X011093Y002100D01*
X010695Y002158D02*
X010695Y001924D01*
X010637Y001866D01*
X010520Y001866D01*
X010461Y001924D01*
X010520Y002041D02*
X010695Y002041D01*
X010695Y002158D02*
X010637Y002216D01*
X010520Y002216D01*
X010461Y002158D01*
X010461Y002100D01*
X010520Y002041D01*
X010327Y001924D02*
X010327Y002158D01*
X010268Y002216D01*
X010093Y002216D01*
X010093Y001866D01*
X010268Y001866D01*
X010327Y001924D01*
X009695Y001924D02*
X009637Y001866D01*
X009520Y001866D01*
X009461Y001924D01*
X009461Y001983D01*
X009520Y002041D01*
X009637Y002041D01*
X009695Y001983D01*
X009695Y001924D01*
X009637Y002041D02*
X009695Y002100D01*
X009695Y002158D01*
X009637Y002216D01*
X009520Y002216D01*
X009461Y002158D01*
X009461Y002100D01*
X009520Y002041D01*
X009327Y001924D02*
X009327Y002158D01*
X009268Y002216D01*
X009093Y002216D01*
X009093Y001866D01*
X009268Y001866D01*
X009327Y001924D01*
X008695Y002158D02*
X008461Y001924D01*
X008461Y001866D01*
X008327Y001924D02*
X008327Y002158D01*
X008268Y002216D01*
X008093Y002216D01*
X008093Y001866D01*
X008268Y001866D01*
X008327Y001924D01*
X008461Y002216D02*
X008695Y002216D01*
X008695Y002158D01*
X007695Y002216D02*
X007578Y002158D01*
X007461Y002041D01*
X007637Y002041D01*
X007695Y001983D01*
X007695Y001924D01*
X007637Y001866D01*
X007520Y001866D01*
X007461Y001924D01*
X007461Y002041D01*
X007327Y001924D02*
X007327Y002158D01*
X007268Y002216D01*
X007093Y002216D01*
X007093Y001866D01*
X007268Y001866D01*
X007327Y001924D01*
X006695Y001924D02*
X006637Y001866D01*
X006520Y001866D01*
X006461Y001924D01*
X006461Y002041D02*
X006578Y002100D01*
X006637Y002100D01*
X006695Y002041D01*
X006695Y001924D01*
X006461Y002041D02*
X006461Y002216D01*
X006695Y002216D01*
X006327Y002158D02*
X006327Y001924D01*
X006268Y001866D01*
X006093Y001866D01*
X006093Y002216D01*
X006268Y002216D01*
X006327Y002158D01*
X005695Y002041D02*
X005461Y002041D01*
X005637Y002216D01*
X005637Y001866D01*
X005327Y001924D02*
X005327Y002158D01*
X005268Y002216D01*
X005093Y002216D01*
X005093Y001866D01*
X005268Y001866D01*
X005327Y001924D01*
X004695Y001924D02*
X004637Y001866D01*
X004520Y001866D01*
X004461Y001924D01*
X004327Y001924D02*
X004327Y002158D01*
X004268Y002216D01*
X004093Y002216D01*
X004093Y001866D01*
X004268Y001866D01*
X004327Y001924D01*
X004461Y002158D02*
X004520Y002216D01*
X004637Y002216D01*
X004695Y002158D01*
X004695Y002100D01*
X004637Y002041D01*
X004695Y001983D01*
X004695Y001924D01*
X004637Y002041D02*
X004578Y002041D01*
X003695Y002100D02*
X003695Y002158D01*
X003637Y002216D01*
X003520Y002216D01*
X003461Y002158D01*
X003327Y002158D02*
X003268Y002216D01*
X003093Y002216D01*
X003093Y001866D01*
X003268Y001866D01*
X003327Y001924D01*
X003327Y002158D01*
X003461Y001866D02*
X003695Y002100D01*
X003695Y001866D02*
X003461Y001866D01*
X002695Y001866D02*
X002461Y001866D01*
X002578Y001866D02*
X002578Y002216D01*
X002461Y002100D01*
X002327Y002158D02*
X002268Y002216D01*
X002093Y002216D01*
X002093Y001866D01*
X002268Y001866D01*
X002327Y001924D01*
X002327Y002158D01*
X001695Y002158D02*
X001695Y001924D01*
X001637Y001866D01*
X001520Y001866D01*
X001461Y001924D01*
X001695Y002158D01*
X001637Y002216D01*
X001520Y002216D01*
X001461Y002158D01*
X001461Y001924D01*
X001327Y001924D02*
X001327Y002158D01*
X001268Y002216D01*
X001093Y002216D01*
X001093Y001866D01*
X001268Y001866D01*
X001327Y001924D01*
X000924Y003742D02*
X003286Y003742D01*
X003286Y006340D01*
X000924Y006340D01*
X000924Y003742D01*
X001711Y005041D02*
X001713Y005080D01*
X001719Y005119D01*
X001729Y005157D01*
X001742Y005194D01*
X001759Y005229D01*
X001779Y005263D01*
X001803Y005294D01*
X001830Y005323D01*
X001859Y005349D01*
X001891Y005372D01*
X001925Y005392D01*
X001961Y005408D01*
X001998Y005420D01*
X002037Y005429D01*
X002076Y005434D01*
X002115Y005435D01*
X002154Y005432D01*
X002193Y005425D01*
X002230Y005414D01*
X002267Y005400D01*
X002302Y005382D01*
X002335Y005361D01*
X002366Y005336D01*
X002394Y005309D01*
X002419Y005279D01*
X002441Y005246D01*
X002460Y005212D01*
X002475Y005176D01*
X002487Y005138D01*
X002495Y005100D01*
X002499Y005061D01*
X002499Y005021D01*
X002495Y004982D01*
X002487Y004944D01*
X002475Y004906D01*
X002460Y004870D01*
X002441Y004836D01*
X002419Y004803D01*
X002394Y004773D01*
X002366Y004746D01*
X002335Y004721D01*
X002302Y004700D01*
X002267Y004682D01*
X002230Y004668D01*
X002193Y004657D01*
X002154Y004650D01*
X002115Y004647D01*
X002076Y004648D01*
X002037Y004653D01*
X001998Y004662D01*
X001961Y004674D01*
X001925Y004690D01*
X001891Y004710D01*
X001859Y004733D01*
X001830Y004759D01*
X001803Y004788D01*
X001779Y004819D01*
X001759Y004853D01*
X001742Y004888D01*
X001729Y004925D01*
X001719Y004963D01*
X001713Y005002D01*
X001711Y005041D01*
X001513Y005041D02*
X001515Y005089D01*
X001521Y005137D01*
X001531Y005184D01*
X001544Y005231D01*
X001562Y005276D01*
X001583Y005319D01*
X001607Y005361D01*
X001635Y005401D01*
X001666Y005438D01*
X001699Y005472D01*
X001736Y005504D01*
X001775Y005532D01*
X001816Y005558D01*
X001859Y005580D01*
X001904Y005598D01*
X001950Y005612D01*
X001997Y005623D01*
X002045Y005630D01*
X002093Y005633D01*
X002141Y005632D01*
X002189Y005627D01*
X002237Y005618D01*
X002283Y005605D01*
X002329Y005589D01*
X002373Y005569D01*
X002415Y005545D01*
X002455Y005519D01*
X002493Y005488D01*
X002528Y005455D01*
X002560Y005419D01*
X002590Y005381D01*
X002616Y005340D01*
X002638Y005298D01*
X002658Y005254D01*
X002673Y005208D01*
X002685Y005161D01*
X002693Y005113D01*
X002697Y005065D01*
X002697Y005017D01*
X002693Y004969D01*
X002685Y004921D01*
X002673Y004874D01*
X002658Y004828D01*
X002638Y004784D01*
X002616Y004742D01*
X002590Y004701D01*
X002560Y004663D01*
X002528Y004627D01*
X002493Y004594D01*
X002455Y004563D01*
X002415Y004537D01*
X002373Y004513D01*
X002329Y004493D01*
X002283Y004477D01*
X002237Y004464D01*
X002189Y004455D01*
X002141Y004450D01*
X002093Y004449D01*
X002045Y004452D01*
X001997Y004459D01*
X001950Y004470D01*
X001904Y004484D01*
X001859Y004502D01*
X001816Y004524D01*
X001775Y004550D01*
X001736Y004578D01*
X001699Y004610D01*
X001666Y004644D01*
X001635Y004681D01*
X001607Y004721D01*
X001583Y004763D01*
X001562Y004806D01*
X001544Y004851D01*
X001531Y004898D01*
X001521Y004945D01*
X001515Y004993D01*
X001513Y005041D01*
X001526Y007984D02*
X001526Y008141D01*
X001683Y008299D01*
X001683Y007984D01*
X001526Y008141D01*
X001526Y008299D01*
X007855Y007141D02*
X007855Y006141D01*
X013855Y006141D01*
X013855Y007141D01*
X013355Y007141D01*
X013355Y008891D01*
X008355Y008891D01*
X008355Y007141D01*
X013355Y007141D01*
X008355Y007141D02*
X007855Y007141D01*
D14*
X006855Y002391D02*
X006855Y000141D01*
X009855Y000141D02*
X009855Y002391D01*
X011855Y002391D02*
X014055Y002391D01*
X014105Y002391D01*
X011855Y002391D02*
X000655Y002391D01*
X003855Y002391D02*
X003855Y000141D01*
X011855Y000141D02*
X011855Y002391D01*
D15*
X011376Y007361D02*
X011256Y007361D01*
X011195Y007421D01*
X011436Y007661D01*
X011436Y007421D01*
X011376Y007361D01*
X011195Y007421D02*
X011195Y007661D01*
X011256Y007721D01*
X011376Y007721D01*
X011436Y007661D01*
X011403Y007911D02*
X011283Y007911D01*
X011223Y007971D01*
X011223Y008091D01*
X011283Y008151D01*
X011403Y008151D01*
X011463Y008091D01*
X011463Y007971D01*
X011403Y007911D01*
X011095Y007911D02*
X011095Y008091D01*
X011035Y008151D01*
X010855Y008151D01*
X010855Y007911D01*
X010729Y007911D02*
X010609Y007911D01*
X010669Y007911D02*
X010669Y008151D01*
X010609Y008151D01*
X010481Y008151D02*
X010301Y008151D01*
X010241Y008091D01*
X010241Y007971D01*
X010301Y007911D01*
X010481Y007911D01*
X010481Y008271D01*
X010669Y008271D02*
X010669Y008331D01*
X010113Y008151D02*
X010113Y007911D01*
X009932Y007911D01*
X009872Y007971D01*
X009872Y008151D01*
X009744Y008091D02*
X009744Y007971D01*
X009684Y007911D01*
X009504Y007911D01*
X009504Y007791D02*
X009504Y008151D01*
X009684Y008151D01*
X009744Y008091D01*
X009379Y007911D02*
X009259Y007911D01*
X009319Y007911D02*
X009319Y008151D01*
X009259Y008151D01*
X009130Y008151D02*
X008950Y008151D01*
X008890Y008091D01*
X008890Y007971D01*
X008950Y007911D01*
X009130Y007911D01*
X009130Y008271D01*
X009319Y008271D02*
X009319Y008331D01*
X008762Y008271D02*
X008522Y007911D01*
X008394Y007911D02*
X008394Y008091D01*
X008334Y008151D01*
X008274Y008091D01*
X008274Y007911D01*
X008154Y007911D02*
X008154Y008151D01*
X008214Y008151D01*
X008274Y008091D01*
X008026Y008091D02*
X008026Y007971D01*
X007965Y007911D01*
X007845Y007911D01*
X007785Y007971D01*
X007785Y008091D01*
X007845Y008151D01*
X007965Y008151D01*
X008026Y008091D01*
X007657Y008151D02*
X007477Y008151D01*
X007417Y008091D01*
X007417Y007971D01*
X007477Y007911D01*
X007657Y007911D01*
X007293Y007911D02*
X007233Y007911D01*
X007233Y007971D01*
X007293Y007971D01*
X007293Y007911D01*
X007105Y007971D02*
X007045Y008031D01*
X006925Y008031D01*
X006865Y008091D01*
X006925Y008151D01*
X007105Y008151D01*
X007105Y007971D02*
X007045Y007911D01*
X006865Y007911D01*
X006736Y007971D02*
X006736Y008091D01*
X006676Y008151D01*
X006496Y008151D01*
X006496Y008271D02*
X006496Y007911D01*
X006676Y007911D01*
X006736Y007971D01*
X006368Y007911D02*
X006188Y007911D01*
X006128Y007971D01*
X006188Y008031D01*
X006368Y008031D01*
X006368Y008091D02*
X006368Y007911D01*
X006368Y008091D02*
X006308Y008151D01*
X006188Y008151D01*
X005943Y008271D02*
X005943Y007911D01*
X006003Y007911D02*
X005882Y007911D01*
X005754Y007911D02*
X005754Y008091D01*
X005694Y008151D01*
X005634Y008091D01*
X005634Y007911D01*
X005514Y007911D02*
X005514Y008151D01*
X005574Y008151D01*
X005634Y008091D01*
X005386Y008091D02*
X005386Y007971D01*
X005326Y007911D01*
X005206Y007911D01*
X005146Y007971D01*
X005146Y008091D01*
X005206Y008151D01*
X005326Y008151D01*
X005386Y008091D01*
X005018Y008091D02*
X005018Y007971D01*
X004958Y007911D01*
X004838Y007911D01*
X004778Y007971D01*
X004778Y008091D01*
X004838Y008151D01*
X004958Y008151D01*
X005018Y008091D01*
X004651Y008151D02*
X004591Y008151D01*
X004471Y008031D01*
X004471Y007911D02*
X004471Y008151D01*
X004285Y008271D02*
X004285Y007911D01*
X004225Y007911D02*
X004345Y007911D01*
X004100Y007911D02*
X003980Y007911D01*
X004040Y007911D02*
X004040Y008271D01*
X003980Y008271D01*
X003852Y008091D02*
X003791Y008151D01*
X003671Y008151D01*
X003671Y008031D02*
X003852Y008031D01*
X003852Y008091D02*
X003852Y007911D01*
X003671Y007911D01*
X003611Y007971D01*
X003671Y008031D01*
X003483Y008091D02*
X003423Y008151D01*
X003363Y008091D01*
X003363Y007911D01*
X003243Y007911D02*
X003243Y008151D01*
X003303Y008151D01*
X003363Y008091D01*
X003483Y008091D02*
X003483Y007911D01*
X003115Y007971D02*
X003055Y007911D01*
X002875Y007911D01*
X003055Y008031D02*
X003115Y007971D01*
X003055Y008031D02*
X002935Y008031D01*
X002875Y008091D01*
X002935Y008151D01*
X003115Y008151D01*
X004225Y008271D02*
X004285Y008271D01*
X005882Y008271D02*
X005943Y008271D01*
X010275Y007601D02*
X010395Y007361D01*
X010515Y007601D01*
X010643Y007601D02*
X010763Y007721D01*
X010763Y007361D01*
X010643Y007361D02*
X010883Y007361D01*
X011011Y007361D02*
X011011Y007421D01*
X011071Y007421D01*
X011071Y007361D01*
X011011Y007361D01*
D16*
X011055Y000581D02*
X010655Y000581D01*
X010055Y000581D02*
X009655Y000581D01*
X009055Y000581D02*
X008655Y000581D01*
X008055Y000581D02*
X007655Y000581D01*
X007055Y000581D02*
X006655Y000581D01*
X006055Y000581D02*
X005655Y000581D01*
X005055Y000581D02*
X004655Y000581D01*
X004055Y000581D02*
X003655Y000581D01*
X003055Y000581D02*
X002655Y000581D01*
X002005Y000581D02*
X001655Y000581D01*
X011655Y000581D02*
X012055Y000581D01*
X012655Y000581D02*
X013055Y000581D01*
D17*
X013063Y006349D03*
D18*
X013063Y006357D03*
D19*
X013059Y006365D03*
D20*
X013055Y006373D03*
D21*
X013055Y006381D03*
D22*
X013055Y006389D03*
D23*
X013047Y006397D03*
X013839Y006837D03*
X013839Y006845D03*
X013839Y006853D03*
X013839Y006869D03*
X013839Y006877D03*
X013839Y006885D03*
X013839Y006893D03*
X013839Y006909D03*
X013839Y006917D03*
X013839Y006925D03*
X013839Y006933D03*
X013839Y006949D03*
X013839Y006957D03*
X013839Y006965D03*
X013839Y006973D03*
X013839Y006989D03*
X013839Y006997D03*
X013839Y007005D03*
X013839Y007013D03*
X013839Y007029D03*
X013839Y007037D03*
X013839Y007045D03*
X013839Y007053D03*
X013839Y007069D03*
X013839Y007077D03*
X013839Y007085D03*
X013839Y007093D03*
X013839Y007109D03*
X013839Y007117D03*
X013839Y007125D03*
X013839Y007133D03*
X013839Y007149D03*
X013839Y007157D03*
X013839Y007165D03*
X013839Y007493D03*
X013839Y007509D03*
X013839Y007517D03*
X013839Y007525D03*
X013839Y007533D03*
X013839Y007549D03*
X013839Y007557D03*
X013839Y007565D03*
X013839Y007573D03*
X013839Y007589D03*
X013839Y007597D03*
X013839Y007605D03*
X013839Y007613D03*
X013839Y007629D03*
X013839Y007637D03*
X013839Y007645D03*
X013839Y007653D03*
X013839Y007669D03*
X013839Y007677D03*
X013839Y007685D03*
X013839Y007693D03*
X013839Y007853D03*
X013839Y007869D03*
X013839Y007877D03*
X013839Y007885D03*
X013839Y007893D03*
X013839Y007909D03*
X013839Y007917D03*
X013839Y007925D03*
X013839Y007933D03*
X013839Y007949D03*
X013839Y007957D03*
X013839Y007965D03*
X013839Y007973D03*
X013839Y007989D03*
X013839Y007997D03*
X013839Y008005D03*
X013839Y008013D03*
X013839Y008029D03*
X013839Y008037D03*
X013839Y008045D03*
X013839Y008053D03*
X013839Y008069D03*
X013839Y008077D03*
X013839Y008085D03*
X013839Y008093D03*
X013839Y008109D03*
X013839Y008117D03*
X013839Y008125D03*
X013839Y008133D03*
X013839Y008149D03*
X013839Y008157D03*
X013839Y008165D03*
X013839Y008173D03*
X013839Y008189D03*
X013839Y008197D03*
X013839Y008205D03*
X013839Y008213D03*
X013839Y008229D03*
X013839Y008237D03*
X013839Y008245D03*
X013839Y008253D03*
X011911Y008253D03*
X011911Y008245D03*
X011911Y008237D03*
X011911Y008229D03*
X011911Y008213D03*
X011911Y008205D03*
X011911Y008197D03*
X011911Y008189D03*
X011911Y008173D03*
X011911Y008165D03*
X011911Y008157D03*
X011911Y008149D03*
X011911Y008133D03*
X011911Y008125D03*
X011911Y008117D03*
X011911Y008109D03*
X011911Y008093D03*
X011911Y008085D03*
X011911Y008077D03*
X011911Y008069D03*
X011911Y008053D03*
X011911Y008045D03*
X011911Y008037D03*
X011911Y008029D03*
X011911Y008013D03*
X011911Y008005D03*
X011911Y007997D03*
X011911Y007989D03*
X011911Y007973D03*
X011911Y007965D03*
X011911Y007957D03*
X011911Y007949D03*
X011911Y007093D03*
X011911Y007085D03*
X011911Y007077D03*
X011911Y007069D03*
X011911Y007053D03*
X011911Y007045D03*
X011911Y007037D03*
X011911Y007029D03*
X011911Y007013D03*
X011911Y007005D03*
X011911Y006997D03*
X011911Y006989D03*
X011911Y006973D03*
X011911Y006965D03*
X011911Y006957D03*
X011911Y006949D03*
X011911Y006933D03*
X011911Y006925D03*
X011911Y006917D03*
X011911Y006909D03*
X011911Y006893D03*
X011911Y006885D03*
X011911Y006877D03*
X011911Y006869D03*
X011911Y006853D03*
X011911Y006845D03*
X011911Y006837D03*
D24*
X013047Y006405D03*
D25*
X013047Y006413D03*
D26*
X013043Y006421D03*
X012675Y007661D03*
X012667Y007701D03*
D27*
X012671Y007685D03*
X012671Y007677D03*
X012671Y007669D03*
X012679Y007637D03*
X012679Y007629D03*
X012679Y007613D03*
X012471Y007717D03*
X012471Y007725D03*
X012471Y007733D03*
X013039Y006429D03*
D28*
X013031Y006437D03*
X013023Y006445D03*
X013015Y006453D03*
X012991Y006469D03*
X012983Y006477D03*
X012967Y006485D03*
X012959Y006493D03*
X012935Y006509D03*
X012927Y006517D03*
X012911Y006525D03*
X012903Y006533D03*
X012879Y006549D03*
X012871Y006557D03*
X012863Y006565D03*
X012847Y006573D03*
X012831Y006589D03*
X012815Y006597D03*
X012807Y006605D03*
X012791Y006613D03*
X012775Y006629D03*
X012759Y006637D03*
X012751Y006645D03*
X012743Y006653D03*
X012719Y006669D03*
X012711Y006677D03*
X012695Y006685D03*
X012687Y006693D03*
X012663Y006709D03*
X012431Y007413D03*
X012439Y007469D03*
X013207Y007637D03*
X013207Y007645D03*
X013207Y007653D03*
X013415Y007805D03*
D29*
X012727Y006661D03*
X012783Y006621D03*
X012839Y006581D03*
X012895Y006541D03*
X012951Y006501D03*
X012999Y006461D03*
D30*
X012675Y006701D03*
X012435Y007421D03*
X012435Y007461D03*
D31*
X012303Y006717D03*
D32*
X012239Y006805D03*
X013511Y006813D03*
X013511Y006805D03*
X013511Y006797D03*
X013511Y006789D03*
X013511Y006773D03*
X013511Y006765D03*
X013511Y006757D03*
X013511Y006749D03*
X013511Y006733D03*
X013511Y006725D03*
X013511Y006717D03*
X013511Y006829D03*
X013511Y008269D03*
X013511Y008277D03*
X013511Y008285D03*
X013511Y008293D03*
X013511Y008349D03*
X013511Y008357D03*
X013511Y008365D03*
X013511Y008373D03*
D33*
X012295Y006725D03*
D34*
X012291Y006733D03*
D35*
X012283Y006741D03*
D36*
X013511Y006741D03*
X013511Y006781D03*
X013511Y006821D03*
X013511Y008301D03*
X013511Y008381D03*
D37*
X012279Y006749D03*
D38*
X012275Y006757D03*
D39*
X012267Y006765D03*
D40*
X012263Y006773D03*
D41*
X012255Y006781D03*
D42*
X012251Y006789D03*
D43*
X012247Y006797D03*
D44*
X012235Y006813D03*
D45*
X012227Y006821D03*
D46*
X012223Y006829D03*
D47*
X011911Y006861D03*
X011911Y006901D03*
X011911Y006941D03*
X011911Y006981D03*
X011911Y007021D03*
X011911Y007061D03*
X011911Y007101D03*
X011911Y007981D03*
X011911Y008021D03*
X011911Y008061D03*
X011911Y008101D03*
X011911Y008141D03*
X011911Y008181D03*
X011911Y008221D03*
X011911Y008261D03*
X013839Y008261D03*
X013839Y008221D03*
X013839Y008181D03*
X013839Y008141D03*
X013839Y008101D03*
X013839Y008061D03*
X013839Y008021D03*
X013839Y007981D03*
X013839Y007941D03*
X013839Y007901D03*
X013839Y007861D03*
X013839Y007701D03*
X013839Y007661D03*
X013839Y007621D03*
X013839Y007581D03*
X013839Y007541D03*
X013839Y007501D03*
X013839Y007141D03*
X013839Y007101D03*
X013839Y007061D03*
X013839Y007021D03*
X013839Y006981D03*
X013839Y006941D03*
X013839Y006901D03*
X013839Y006861D03*
D48*
X013563Y007093D03*
D49*
X013563Y007101D03*
X012707Y007421D03*
X012443Y007501D03*
X012451Y007541D03*
X012451Y007581D03*
X012459Y007621D03*
X012467Y007701D03*
D50*
X012179Y007133D03*
X012179Y007125D03*
X012179Y007117D03*
X012179Y007109D03*
D51*
X012903Y007109D03*
D52*
X013563Y007109D03*
D53*
X012935Y007117D03*
D54*
X013563Y007117D03*
D55*
X012947Y007125D03*
D56*
X013563Y007125D03*
X013747Y007253D03*
X013747Y007269D03*
X013747Y007277D03*
X013747Y007285D03*
X013747Y007293D03*
X013747Y007309D03*
X013747Y007317D03*
X013747Y007325D03*
X013747Y007333D03*
X013747Y007349D03*
X013747Y007357D03*
X013747Y007365D03*
X013747Y007709D03*
X013747Y007717D03*
X013747Y007725D03*
X013747Y007733D03*
X013747Y007749D03*
X013747Y007757D03*
X013747Y007765D03*
X013747Y007773D03*
X013547Y007933D03*
D57*
X012955Y007133D03*
D58*
X013563Y007133D03*
X012563Y007869D03*
X012563Y007877D03*
X012563Y007885D03*
X012563Y007893D03*
X013547Y007925D03*
D59*
X012183Y007141D03*
D60*
X012955Y007141D03*
D61*
X013567Y007141D03*
X012567Y007781D03*
D62*
X012183Y007173D03*
X012183Y007165D03*
X012183Y007157D03*
X012183Y007149D03*
D63*
X012959Y007149D03*
D64*
X013563Y007149D03*
X013707Y007445D03*
D65*
X012963Y007157D03*
X012187Y007189D03*
X012187Y007197D03*
X012187Y007205D03*
X012187Y007213D03*
D66*
X013019Y007557D03*
X013019Y007565D03*
X013315Y007709D03*
X013315Y007717D03*
X013315Y007725D03*
X013315Y007733D03*
X013307Y007757D03*
X013307Y007765D03*
X013307Y007773D03*
X013307Y007293D03*
X013307Y007285D03*
X013307Y007277D03*
X013563Y007157D03*
D67*
X012967Y007165D03*
X012967Y007173D03*
X012191Y007229D03*
X012191Y007237D03*
X012191Y007245D03*
X012191Y007253D03*
D68*
X013323Y007685D03*
X013307Y007789D03*
X013563Y007165D03*
D69*
X013623Y007173D03*
D70*
X012187Y007181D03*
X012187Y007221D03*
D71*
X012967Y007181D03*
D72*
X013623Y007181D03*
D73*
X012967Y007189D03*
X012967Y007197D03*
D74*
X013619Y007197D03*
X013619Y007189D03*
D75*
X012971Y007205D03*
X012971Y007213D03*
D76*
X013615Y007213D03*
X013615Y007205D03*
D77*
X012971Y007221D03*
D78*
X013615Y007221D03*
D79*
X013255Y007229D03*
D80*
X013071Y007237D03*
D81*
X013739Y007237D03*
X013739Y007397D03*
X013739Y007797D03*
X013739Y007805D03*
X013739Y007813D03*
X012563Y007909D03*
X012563Y007917D03*
X012563Y007925D03*
X012563Y007933D03*
D82*
X013067Y007245D03*
D83*
X013479Y007613D03*
X013487Y007605D03*
X013743Y007789D03*
X013743Y007389D03*
X013743Y007373D03*
X013743Y007245D03*
D84*
X013683Y007477D03*
X013547Y007877D03*
X012827Y007253D03*
D85*
X013299Y007253D03*
X013547Y007853D03*
X013043Y007885D03*
D86*
X012447Y007261D03*
D87*
X013307Y007261D03*
D88*
X013747Y007261D03*
X013747Y007301D03*
X013747Y007341D03*
X013747Y007741D03*
D89*
X012447Y007269D03*
D90*
X013311Y007269D03*
X013319Y007693D03*
X013551Y007893D03*
X013023Y007917D03*
D91*
X013495Y007597D03*
X013735Y007405D03*
X012015Y007413D03*
X012015Y007405D03*
X012015Y007397D03*
X012015Y007389D03*
X012015Y007373D03*
X012015Y007365D03*
X012015Y007357D03*
X012015Y007349D03*
X012015Y007333D03*
X012015Y007325D03*
X012015Y007317D03*
X012015Y007309D03*
X012015Y007293D03*
X012015Y007285D03*
X012015Y007277D03*
X012015Y007429D03*
X012015Y007437D03*
X012015Y007445D03*
X012015Y007453D03*
X012015Y007469D03*
X012015Y007477D03*
X012015Y007485D03*
X012015Y007493D03*
X012015Y007509D03*
X012015Y007517D03*
X012015Y007525D03*
X012015Y007533D03*
X012015Y007549D03*
X012015Y007557D03*
X012015Y007565D03*
X012015Y007573D03*
X012015Y007589D03*
X012015Y007597D03*
X012015Y007605D03*
X012015Y007613D03*
X012015Y007629D03*
X012015Y007637D03*
X012015Y007645D03*
X012015Y007653D03*
X012015Y007669D03*
X012015Y007677D03*
X012015Y007685D03*
X012015Y007693D03*
X012015Y007709D03*
X012015Y007717D03*
X012015Y007725D03*
X012015Y007733D03*
X012015Y007749D03*
X012015Y007757D03*
X012015Y007765D03*
X012015Y007773D03*
X012015Y007789D03*
X012015Y007797D03*
X012015Y007805D03*
X012015Y007813D03*
X012015Y007829D03*
X012015Y007837D03*
X012015Y007845D03*
X012015Y007853D03*
X012015Y007869D03*
X012015Y007877D03*
X012015Y007885D03*
X012015Y007893D03*
X012015Y007909D03*
X012015Y007917D03*
X012015Y007925D03*
X012015Y007933D03*
D92*
X012679Y007293D03*
X012679Y007285D03*
X012679Y007277D03*
D93*
X012015Y007301D03*
X012015Y007341D03*
X012015Y007381D03*
X012015Y007421D03*
X012015Y007461D03*
X012015Y007501D03*
X012015Y007541D03*
X012015Y007581D03*
X012015Y007621D03*
X012015Y007661D03*
X012015Y007701D03*
X012015Y007741D03*
X012015Y007781D03*
X012015Y007821D03*
X012015Y007861D03*
X012015Y007901D03*
X012015Y007941D03*
X013735Y007821D03*
D94*
X012683Y007301D03*
D95*
X013311Y007301D03*
X013311Y007341D03*
X013311Y007381D03*
X013311Y007741D03*
X013551Y007901D03*
D96*
X012683Y007317D03*
X012683Y007309D03*
D97*
X013311Y007309D03*
X013311Y007317D03*
X013311Y007325D03*
X013311Y007333D03*
X013311Y007349D03*
X013311Y007357D03*
X013311Y007365D03*
X013311Y007373D03*
X013311Y007389D03*
X013311Y007397D03*
X013703Y007453D03*
X013311Y007749D03*
D98*
X013063Y007805D03*
X013063Y007813D03*
X013063Y007493D03*
X012567Y007349D03*
X012567Y007333D03*
X012567Y007325D03*
D99*
X012931Y007325D03*
X012931Y007333D03*
X012931Y007349D03*
X012931Y007357D03*
X012931Y007365D03*
X012931Y007373D03*
X012931Y007389D03*
X012931Y007397D03*
X012931Y007405D03*
X012931Y007413D03*
X012931Y007429D03*
X012931Y007437D03*
X012931Y007445D03*
X012931Y007453D03*
X012931Y007469D03*
X012931Y007477D03*
X012931Y007485D03*
X012931Y007629D03*
X012931Y007637D03*
X012931Y007645D03*
X012931Y007653D03*
X012931Y007669D03*
X012931Y007677D03*
X012931Y007685D03*
X012931Y007693D03*
X012931Y007709D03*
X012931Y007717D03*
X012931Y007725D03*
X012931Y007733D03*
X012931Y007749D03*
X012931Y007757D03*
X012931Y007765D03*
X012931Y007773D03*
X012931Y007789D03*
X012931Y007797D03*
D100*
X013063Y007501D03*
X012567Y007341D03*
D101*
X012931Y007341D03*
X012931Y007381D03*
X012931Y007421D03*
X012931Y007461D03*
X012931Y007621D03*
X012931Y007661D03*
X012931Y007701D03*
X012931Y007741D03*
X012931Y007781D03*
D102*
X013059Y007829D03*
X013059Y007837D03*
X013059Y007613D03*
X013059Y007509D03*
X012571Y007365D03*
X012571Y007357D03*
D103*
X012567Y007373D03*
X012567Y007389D03*
X012567Y007397D03*
X012567Y007405D03*
D104*
X012567Y007381D03*
D105*
X013743Y007381D03*
X013743Y007781D03*
D106*
X013215Y007469D03*
X013207Y007477D03*
X013215Y007453D03*
X013215Y007445D03*
X013223Y007429D03*
X013223Y007413D03*
X013223Y007405D03*
D107*
X012707Y007413D03*
X012699Y007469D03*
X012699Y007477D03*
X012443Y007477D03*
X012443Y007485D03*
X012443Y007493D03*
X012443Y007509D03*
X012443Y007517D03*
X012443Y007525D03*
X012443Y007533D03*
X012451Y007549D03*
X012451Y007557D03*
X012451Y007565D03*
X012451Y007573D03*
X012451Y007589D03*
X012459Y007613D03*
X012459Y007629D03*
X012459Y007637D03*
X012459Y007645D03*
X012459Y007653D03*
X012467Y007669D03*
X012467Y007677D03*
X012467Y007685D03*
X012467Y007693D03*
X012467Y007709D03*
D108*
X013731Y007413D03*
D109*
X013223Y007421D03*
X013215Y007461D03*
X013423Y007821D03*
D110*
X013723Y007421D03*
X012563Y007821D03*
D111*
X012435Y007453D03*
X012435Y007445D03*
X012435Y007437D03*
X012435Y007429D03*
D112*
X012455Y007597D03*
X012455Y007605D03*
X012687Y007573D03*
X012687Y007565D03*
X012687Y007557D03*
X012687Y007549D03*
X012695Y007525D03*
X012695Y007517D03*
X012695Y007509D03*
X012695Y007493D03*
X012695Y007485D03*
X012703Y007453D03*
X012703Y007445D03*
X012703Y007437D03*
X012703Y007429D03*
D113*
X012567Y007789D03*
X012567Y007797D03*
X013719Y007429D03*
D114*
X013419Y007813D03*
X013203Y007629D03*
X013219Y007437D03*
D115*
X013715Y007437D03*
D116*
X012703Y007461D03*
X012695Y007501D03*
X012687Y007541D03*
X012687Y007581D03*
X012463Y007661D03*
D117*
X013695Y007461D03*
D118*
X013691Y007469D03*
D119*
X013443Y007653D03*
X013187Y007485D03*
D120*
X013327Y007669D03*
X013551Y007869D03*
X013679Y007485D03*
X013039Y007893D03*
D121*
X013503Y007589D03*
X013607Y007493D03*
D122*
X013603Y007501D03*
X012987Y007941D03*
X012563Y007861D03*
D123*
X013519Y007573D03*
X013591Y007509D03*
D124*
X013055Y007517D03*
X013055Y007605D03*
X013055Y007845D03*
X013055Y007853D03*
D125*
X012567Y007853D03*
X012567Y007845D03*
X012567Y007837D03*
X013527Y007565D03*
X013575Y007525D03*
X013583Y007517D03*
D126*
X013051Y007525D03*
X013051Y007597D03*
X013051Y007869D03*
D127*
X012691Y007533D03*
D128*
X013047Y007533D03*
X013047Y007589D03*
X013047Y007877D03*
D129*
X012563Y007829D03*
X012563Y007813D03*
X012563Y007805D03*
X013547Y007917D03*
X013539Y007557D03*
X013547Y007549D03*
X013563Y007533D03*
D130*
X013039Y007541D03*
X013039Y007581D03*
D131*
X013555Y007541D03*
D132*
X013551Y007885D03*
X013031Y007909D03*
X013031Y007573D03*
X013031Y007549D03*
D133*
X013511Y007581D03*
D134*
X013547Y007957D03*
X012675Y007653D03*
X012675Y007645D03*
X012683Y007605D03*
X012683Y007597D03*
X012683Y007589D03*
X012667Y007693D03*
X012667Y007709D03*
X012667Y007717D03*
X012667Y007725D03*
X012667Y007733D03*
D135*
X012679Y007621D03*
D136*
X013191Y007621D03*
D137*
X013471Y007621D03*
D138*
X013463Y007629D03*
X013455Y007637D03*
D139*
X013447Y007645D03*
D140*
X013331Y007661D03*
X013547Y007861D03*
D141*
X013303Y007797D03*
X013327Y007677D03*
D142*
X013315Y007701D03*
D143*
X012567Y007741D03*
D144*
X012563Y007749D03*
X012563Y007757D03*
X012563Y007765D03*
X012563Y007773D03*
D145*
X013311Y007781D03*
D146*
X013059Y007821D03*
D147*
X013607Y007829D03*
X013607Y007837D03*
D148*
X013611Y007845D03*
D149*
X013051Y007861D03*
D150*
X012567Y007901D03*
D151*
X013035Y007901D03*
D152*
X013551Y007909D03*
D153*
X013015Y007925D03*
D154*
X013007Y007933D03*
D155*
X012563Y007941D03*
D156*
X013547Y007941D03*
D157*
X013547Y007949D03*
D158*
X013547Y007965D03*
D159*
X012203Y008269D03*
X012203Y008277D03*
X012203Y008285D03*
X012203Y008293D03*
X012203Y008349D03*
X012203Y008357D03*
X012203Y008365D03*
X012203Y008373D03*
D160*
X012203Y008381D03*
X012203Y008301D03*
D161*
X012875Y008309D03*
X012875Y008317D03*
X012875Y008325D03*
X012875Y008333D03*
D162*
X012875Y008341D03*
M02*
