G75*
G70*
%OFA0B0*%
%FSLAX24Y24*%
%IPPOS*%
%LPD*%
%AMOC8*
5,1,8,0,0,1.08239X$1,22.5*
%
%ADD10C,0.0000*%
%ADD11OC8,0.0555*%
%ADD12R,0.0540X0.0260*%
%ADD13R,0.0260X0.0540*%
%ADD14R,0.0512X0.0512*%
%ADD15C,0.0780*%
%ADD16R,0.0512X0.1300*%
%ADD17R,0.0780X0.0780*%
D10*
X000605Y000141D02*
X000605Y008718D01*
X014134Y008718D01*
X014134Y000141D01*
X000605Y000141D01*
D11*
X001355Y000581D03*
X002355Y000581D03*
X003355Y000581D03*
X004355Y000581D03*
X005355Y000581D03*
X006355Y000581D03*
X007355Y000581D03*
X008355Y000581D03*
X009355Y000581D03*
X010355Y000581D03*
X011355Y000581D03*
X012355Y000581D03*
X013355Y000581D03*
X013355Y001391D03*
X012355Y001391D03*
X011355Y001391D03*
X010355Y001391D03*
X009355Y001391D03*
X008355Y001391D03*
X007355Y001391D03*
X006355Y001391D03*
X005355Y001391D03*
X004355Y001391D03*
X003355Y001391D03*
X002355Y001391D03*
X001355Y001391D03*
D12*
X003988Y004506D03*
X003988Y004821D03*
X003988Y005136D03*
X003988Y005451D03*
X003988Y005765D03*
X003988Y006080D03*
X003988Y006395D03*
X003988Y006710D03*
X007368Y006710D03*
X007368Y006395D03*
X007368Y006080D03*
X007368Y005765D03*
X007368Y005451D03*
X007368Y005136D03*
X007368Y004821D03*
X007368Y004506D03*
D13*
X006780Y003918D03*
X006465Y003918D03*
X006150Y003918D03*
X005835Y003918D03*
X005520Y003918D03*
X005205Y003918D03*
X004891Y003918D03*
X004576Y003918D03*
X004576Y007298D03*
X004891Y007298D03*
X005205Y007298D03*
X005520Y007298D03*
X005835Y007298D03*
X006150Y007298D03*
X006465Y007298D03*
X006780Y007298D03*
D14*
X002018Y008141D03*
X001191Y008141D03*
X012441Y003391D03*
X013268Y003391D03*
D15*
X013355Y004641D03*
X012355Y004641D03*
X012355Y005891D03*
X011355Y005891D03*
X010355Y005891D03*
X009355Y005891D03*
X008355Y005891D03*
D16*
X002892Y006380D03*
X001317Y006380D03*
X001317Y003703D03*
X002892Y003703D03*
D17*
X013355Y005891D03*
M02*
